<svg xmlns="http://www.w3.org/2000/svg" xmlns:xlink="http://www.w3.org/1999/xlink" width="565" zoomAndPan="magnify" viewBox="0 0 423.75 146.249994" height="195" preserveAspectRatio="xMidYMid meet" version="1.0"><path fill="#000000" d="M 309.234375 1.265625 C 303.625 1.945312 299.808594 3.058594 295.304688 5.339844 C 280.167969 13.007812 275.335938 27.683594 282.203125 45.128906 C 284.089844 49.921875 286.3125 53.945312 294.425781 67.269531 C 302.917969 81.214844 303.257812 83.257812 298.320312 90.675781 C 292.453125 99.488281 286.445312 102.640625 270.359375 105.347656 C 252.472656 108.355469 246.835938 110.636719 240.957031 117.253906 C 236.457031 122.316406 235.304688 126.042969 235.105469 136.226562 C 234.972656 142.820312 235.445312 142.367188 229.175781 141.910156 C 218.027344 141.09375 218.222656 141.226562 218.980469 134.953125 C 219.734375 128.683594 219.601562 128.824219 225.0625 128.667969 C 235.527344 128.359375 236.421875 127.675781 234.355469 121.550781 C 233.078125 117.773438 232.707031 117.117188 231.78125 116.996094 C 230.644531 116.847656 230.488281 117.039062 229.382812 120.011719 C 227.789062 124.28125 227.96875 124.179688 226.976562 121.375 C 225.507812 117.226562 224.667969 116.078125 223.285156 116.335938 C 222.621094 116.460938 222.34375 116.792969 220.914062 119.144531 C 220.246094 120.25 219.550781 121.332031 219.375 121.550781 L 219.050781 121.953125 L 219.054688 120.351562 C 219.070312 114.710938 220.273438 113.726562 227.867188 113.152344 C 234.992188 112.613281 236.960938 112.230469 237.152344 111.351562 C 237.492188 109.816406 236.984375 109.625 227.5 107.679688 C 218.261719 105.785156 217.128906 105.183594 215.242188 101.132812 C 213.679688 97.792969 209.441406 89.363281 207.234375 85.207031 C 197.988281 67.8125 195.128906 59.375 195.128906 49.453125 C 195.128906 35.753906 202.207031 23.820312 214.496094 16.804688 C 216.535156 15.640625 216.511719 15.640625 215.835938 16.820312 C 205.277344 35.394531 206.226562 61.949219 218.539062 92.390625 C 221.445312 99.582031 222.429688 100.976562 224.332031 100.621094 C 225.949219 100.320312 227.46875 96.609375 229.859375 87.128906 C 235.8125 63.535156 235.453125 37.117188 228.980469 22.257812 C 228.582031 21.339844 228.214844 20.5 228.167969 20.390625 C 227.878906 19.714844 231.589844 23.3125 232.984375 25.058594 C 240.476562 34.421875 243.753906 51.105469 241.6875 69.367188 C 241.363281 72.238281 241.261719 72.957031 240.679688 76.539062 C 239.1875 85.730469 236.863281 93.621094 233.714844 100.179688 C 232.667969 102.363281 232.527344 102.742188 232.605469 103.152344 C 232.9375 104.933594 235.15625 103.332031 238.996094 98.546875 C 245.429688 90.535156 249.53125 81.902344 253.582031 67.871094 C 258.796875 49.800781 259.75 35.015625 256.398438 24.195312 C 255.96875 22.808594 255.984375 22.8125 257.265625 24.34375 C 266.355469 35.25 266.757812 47.980469 258.660156 68.402344 C 253.925781 80.351562 249.613281 88.664062 242.667969 99.25 C 239.421875 104.191406 239.082031 105.546875 241.183594 105.152344 C 243.207031 104.773438 256.230469 93.535156 262.542969 86.722656 C 280.554688 67.265625 284.382812 44.871094 272.855469 26.367188 C 264.222656 12.511719 240.292969 4.488281 218.664062 8.195312 C 200.636719 11.285156 188.582031 21.164062 183.84375 36.726562 C 180.535156 47.597656 182.050781 57.878906 189.015625 71.792969 C 193.710938 81.179688 199.011719 89.449219 206.398438 98.921875 C 210.226562 103.832031 211.90625 106.285156 212.46875 107.804688 L 212.703125 108.4375 L 212.214844 108.886719 C 211.421875 109.609375 209.121094 110.085938 204.753906 110.429688 C 198.824219 110.894531 196.507812 110.074219 187.253906 104.210938 C 181.886719 100.8125 180.628906 100.164062 177.351562 99.101562 C 173.023438 97.699219 166.210938 96.960938 159.953125 97.222656 C 149.308594 97.664062 144.800781 101.058594 146.242188 107.546875 C 146.898438 110.503906 146.839844 111.355469 145.875 113.25 C 145.085938 114.800781 144.519531 115.085938 142.78125 114.808594 C 140.949219 114.515625 139.308594 113.628906 137.71875 112.066406 C 136.074219 110.453125 136.226562 110.207031 139.222656 109.621094 C 142.746094 108.929688 143.964844 108.214844 143.964844 106.828125 C 143.964844 105.691406 143.589844 105.441406 141.144531 104.945312 C 136.863281 104.078125 135.785156 102.050781 137.960938 98.960938 C 139.921875 96.167969 142.355469 95.082031 147.707031 94.605469 C 152.835938 94.148438 155.347656 92.964844 158.015625 89.742188 C 160.882812 86.28125 163.984375 79.886719 165.328125 74.664062 C 168.558594 62.09375 163.378906 48.394531 153.496094 43.363281 C 140.085938 36.539062 118.523438 43.25 114.59375 55.464844 C 113.882812 57.683594 113.84375 57.957031 113.839844 60.667969 C 113.832031 67.113281 115.570312 70.816406 123.648438 81.539062 C 129.660156 89.523438 131.464844 92.578125 131.945312 95.570312 C 132.917969 101.648438 121.417969 107.890625 109.238281 107.894531 C 103.109375 107.898438 97.707031 106.671875 87.851562 103.050781 C 77.675781 99.3125 73.207031 98.320312 65.9375 98.1875 C 57.285156 98.027344 51.847656 99.429688 39.351562 105.046875 C 31.609375 108.527344 28.796875 109.390625 23.996094 109.753906 C 18.074219 110.203125 9.6875 108.148438 3.878906 104.820312 C 1.554688 103.492188 1.007812 103.445312 1.007812 104.585938 L 1.007812 105.148438 L 2.375 105.980469 C 8.140625 109.464844 15.417969 111.484375 22.238281 111.484375 C 28.222656 111.484375 31.5625 110.570312 40.886719 106.386719 C 59.558594 98.011719 67.8125 97.6875 86.78125 104.585938 C 102.667969 110.359375 111.457031 111.101562 121.917969 107.550781 C 131.863281 104.179688 135.519531 98.964844 132.78125 92.078125 C 131.707031 89.382812 130.113281 86.917969 125.175781 80.339844 C 117.074219 69.535156 115.332031 65.898438 115.546875 60.203125 C 116.09375 45.554688 141.636719 36.628906 154.851562 46.460938 C 162.628906 52.246094 166.226562 63.160156 163.78125 73.539062 C 162.253906 80.007812 157.820312 88.015625 154.296875 90.65625 C 152.355469 92.113281 151.023438 92.542969 147.414062 92.878906 C 144.417969 93.15625 144.203125 93.1875 142.761719 93.5625 C 138.105469 94.761719 134.933594 98.324219 135.175781 102.078125 C 135.34375 104.675781 136.839844 105.933594 140.640625 106.667969 L 141.894531 106.910156 L 141.292969 107.191406 C 140.960938 107.347656 140.121094 107.601562 139.421875 107.753906 C 135.6875 108.574219 135.375 108.703125 134.980469 109.589844 C 133.386719 113.183594 141.789062 118.207031 145.988281 116.167969 C 147.789062 115.296875 148.792969 110.949219 147.996094 107.488281 C 147.355469 104.707031 147.75 103.332031 149.644531 101.753906 C 152.941406 99.003906 161.1875 98.125 170.886719 99.488281 C 176.402344 100.265625 179.328125 101.4375 185.390625 105.304688 C 195.40625 111.695312 198.058594 112.625 204.886719 112.15625 C 216.433594 111.363281 217.039062 109.324219 208.828125 98.878906 C 196.105469 82.691406 187.171875 66.574219 184.800781 55.535156 C 181.128906 38.449219 190.113281 21.03125 206.371094 13.707031 C 228.808594 3.601562 260.835938 10.59375 271.589844 27.949219 C 276.648438 36.109375 278.714844 46.324219 277.15625 55.464844 C 274.660156 70.128906 265.640625 83.019531 247.105469 98.421875 C 243.386719 101.511719 243.507812 101.507812 245.480469 98.464844 C 251.957031 88.484375 257.410156 77.371094 261.855469 65.097656 C 269.003906 45.375 267.238281 31.21875 256.28125 20.402344 C 255.027344 19.164062 255 19.144531 254.269531 19.085938 C 253.0625 18.984375 252.96875 19.539062 253.789062 21.945312 C 257.902344 34.007812 257.597656 46.140625 252.726562 64.289062 C 248.523438 79.941406 244.28125 88.949219 236.722656 98.277344 C 236.632812 98.386719 236.796875 97.878906 237.09375 97.144531 C 241.566406 86.050781 244.40625 68.960938 243.90625 56.199219 C 243.144531 36.84375 238.304688 25.09375 228.089844 17.804688 C 226.121094 16.398438 224.9375 16.429688 224.929688 17.890625 C 224.929688 18.089844 225.4375 19.238281 226.066406 20.449219 C 232.574219 32.988281 234.160156 53.773438 230.332031 76.25 C 228.785156 85.34375 225.664062 96.558594 224.125 98.546875 L 223.867188 98.878906 L 223.53125 98.480469 C 221.570312 96.140625 216.34375 82.332031 214.039062 73.40625 C 208.078125 50.339844 209.15625 32.769531 217.441406 17.855469 C 219.871094 13.480469 218.550781 12.5 213.707031 15.074219 C 198.152344 23.34375 190.617188 40.449219 194.355469 59 C 195.789062 66.117188 198.75 73.203125 206.019531 86.941406 C 208.691406 91.992188 212.085938 98.75 213.421875 101.679688 C 215.503906 106.238281 216.929688 107.222656 223.527344 108.660156 C 226.03125 109.207031 232.519531 110.570312 232.976562 110.652344 C 233.421875 110.726562 233.46875 110.949219 233.046875 110.949219 C 232.878906 110.949219 231.902344 111.035156 230.875 111.144531 C 229.84375 111.25 228.042969 111.402344 226.867188 111.484375 C 219.085938 112.019531 217.550781 113.390625 217.355469 119.960938 C 217.246094 123.605469 217.472656 124.285156 218.789062 124.285156 C 219.839844 124.285156 220.289062 123.8125 222.25 120.617188 C 222.925781 119.519531 223.53125 118.566406 223.59375 118.503906 C 223.789062 118.300781 224.625 120.148438 225.722656 123.21875 C 226.601562 125.667969 226.871094 126.019531 227.871094 126.019531 C 228.890625 126.019531 229.320312 125.359375 230.679688 121.71875 C 231.140625 120.492188 231.550781 119.484375 231.597656 119.484375 C 231.746094 119.484375 233.21875 123.6875 233.464844 124.808594 C 233.789062 126.285156 231.9375 126.765625 225.398438 126.90625 C 218.46875 127.054688 218.15625 127.328125 217.296875 134.023438 C 216.320312 141.652344 217.078125 142.652344 224.328125 143.277344 C 237.125 144.378906 236.808594 144.535156 236.816406 136.964844 C 236.824219 127 238.140625 122.992188 243.089844 117.832031 C 248.742188 111.949219 254.140625 109.828125 270.289062 107.152344 C 281.578125 105.277344 285.65625 104.070312 290.324219 101.214844 C 298.0625 96.484375 303.914062 87.429688 303.214844 81.277344 C 302.871094 78.253906 301.15625 74.710938 295.570312 65.480469 C 294.390625 63.53125 292.574219 60.523438 291.53125 58.800781 C 281.941406 42.945312 279.296875 33.75 281.574219 24.175781 C 284.933594 10.0625 302.695312 0.320312 319.125 3.585938 C 338.535156 7.445312 349.472656 22.867188 344.652344 39.574219 C 342.214844 48.023438 334.789062 60.792969 328.675781 67.050781 C 322.980469 72.886719 318.773438 74.796875 310.03125 75.53125 C 304.625 75.984375 303.882812 76.890625 303.476562 83.570312 C 303.140625 88.992188 303.402344 90.675781 304.570312 90.675781 C 305.652344 90.675781 305.945312 90.164062 307.359375 85.75 C 307.808594 84.355469 308.222656 83.1875 308.28125 83.152344 C 308.339844 83.117188 308.886719 84.128906 309.496094 85.40625 C 310.867188 88.277344 311.046875 88.476562 312.304688 88.476562 C 313.808594 88.476562 314.359375 87.871094 316.179688 84.214844 C 316.832031 82.894531 317.398438 81.90625 317.433594 82.011719 C 317.894531 83.433594 318.359375 87.546875 318.183594 88.628906 C 317.867188 90.5625 316.933594 90.941406 311.839844 91.222656 C 305.074219 91.59375 304.15625 92.640625 304.328125 99.8125 C 304.46875 105.699219 305.527344 106.691406 311.238281 106.273438 C 317.6875 105.804688 318.953125 104.570312 320.113281 97.613281 C 321.128906 91.515625 322.519531 91.058594 327.671875 95.144531 C 334.773438 100.777344 341.316406 101.398438 353.457031 97.585938 C 355.332031 96.996094 357.738281 96.25 358.800781 95.921875 C 368.574219 92.929688 372.316406 93.332031 380.609375 98.253906 C 388.3125 102.828125 392.222656 103.164062 401.421875 100.039062 C 408.109375 97.769531 421.140625 91.574219 421.5 90.496094 C 422.078125 88.765625 421.046875 88.914062 416.785156 91.183594 C 405.742188 97.070312 396.832031 100.285156 391.566406 100.289062 C 388.445312 100.292969 386.652344 99.648438 381.914062 96.8125 C 372.339844 91.082031 368.355469 90.910156 353.769531 95.617188 C 341.261719 99.652344 335.835938 99.207031 328.835938 93.574219 C 325.839844 91.164062 323.246094 90.3125 321.238281 91.074219 C 319.617188 91.6875 319.082031 92.828125 318.382812 97.140625 C 317.414062 103.148438 316.523438 104.058594 311.105469 104.550781 C 307.035156 104.921875 306.285156 104.324219 306.039062 100.492188 C 305.820312 97.15625 306.191406 95.042969 307.15625 94.078125 C 308.011719 93.226562 307.832031 93.257812 314.042969 92.8125 C 319.714844 92.410156 320.789062 90.566406 319.53125 83.40625 C 318.9375 80.035156 318.585938 79.296875 317.546875 79.285156 C 316.601562 79.269531 316.5 79.394531 314.839844 82.675781 C 312.476562 87.335938 312.433594 87.355469 311.097656 84.433594 C 309.550781 81.050781 309.097656 80.5625 307.796875 80.882812 C 307.097656 81.058594 306.835938 81.527344 306.035156 84.035156 C 305.070312 87.058594 305.074219 87.058594 305.164062 84.675781 C 305.414062 78.015625 305.734375 77.628906 311.445312 77.144531 C 323.558594 76.113281 330.777344 70.507812 339.53125 55.332031 C 348.378906 40 349.800781 29.34375 344.410156 18.753906 C 339.84375 9.78125 330 3.441406 317.652344 1.511719 C 316.304688 1.304688 310.371094 1.128906 309.234375 1.265625 " fill-opacity="1" fill-rule="evenodd"/></svg>