<svg xmlns="http://www.w3.org/2000/svg" xmlns:xlink="http://www.w3.org/1999/xlink" width="320" zoomAndPan="magnify" viewBox="0 0 240 279.749983" height="373" preserveAspectRatio="xMidYMid meet" version="1.0"><defs><clipPath id="aa709b9dbb"><path d="M 0.105469 96 L 64 96 L 64 272 L 0.105469 272 Z M 0.105469 96 " clip-rule="nonzero"/></clipPath><clipPath id="aeb2a8f66f"><path d="M 112 25 L 239 25 L 239 279.5 L 112 279.5 Z M 112 25 " clip-rule="nonzero"/></clipPath></defs><path stroke-linecap="round" transform="matrix(0.0201835, 0, 0, -0.0201589, -69.14095, 329.064638)" fill="none" stroke-linejoin="round" d="M 6298.274445 16299.903775 C 6187.765103 16112.912824 6077.062225 15925.921873 5989.9708 15736.605646 C 5902.879374 15547.676965 5839.012329 15356.229235 5800.885639 15162.843774 C 5762.565412 14969.458314 5749.792003 14773.941351 5730.631889 14589.081903 C 5711.665312 14404.028682 5686.118494 14229.826749 5690.376297 14085.272087 C 5694.6341 13940.717424 5728.502988 13826.003804 5781.725525 13734.542945 C 5834.948063 13643.275859 5907.137177 13575.261534 5930.555094 13577.393037 C 5953.779474 13579.330767 5928.426192 13651.608099 5894.363768 13723.88543 C 5860.301344 13796.162761 5817.916851 13868.440093 5771.081018 13900.412639 C 5724.245185 13932.191412 5673.345085 13923.665399 5690.376297 13876.966105 C 5707.407509 13830.26681 5792.370033 13745.200461 5849.656837 13658.002608 C 5907.137177 13570.998528 5936.941798 13481.669172 5941.199601 13422.180859 C 5945.457404 13362.692546 5924.168389 13332.851503 5864.559147 13352.035031 C 5805.143442 13371.024786 5707.407509 13439.039111 5694.6341 13432.838375 C 5681.860691 13426.443865 5754.049806 13345.640522 5847.527935 13292.546718 C 5941.199601 13239.259141 6055.966746 13213.874878 6136.671467 13218.137884 C 6217.376187 13222.207117 6264.212021 13256.311166 6217.376187 13330.72 C 6170.733891 13405.128835 6030.419928 13519.842454 6015.517618 13519.842454 C 6000.615307 13519.842454 6111.124649 13405.128835 6155.83158 13271.231687 C 6200.344975 13137.33454 6179.249497 12984.253865 6106.866846 12814.121166 C 6034.677731 12644.182239 5911.39498 12457.191288 5828.367822 12327.557147 C 5745.5342 12197.923006 5703.149706 12125.645674 5690.376297 12029.921809 C 5677.602888 11934.197944 5694.6341 11815.221318 5764.694313 11742.943987 C 5834.948063 11670.666656 5958.230814 11645.282392 5992.099701 11660.00914 C 6026.162125 11674.929662 5970.810686 11730.348742 5949.715207 11808.826809 C 5928.426192 11887.49865 5941.199601 11989.617024 5909.266079 12008.606779 C 5877.332556 12027.790306 5800.885639 11964.038987 5783.854427 11893.893159 C 5766.823215 11823.747331 5809.401245 11747.206993 5879.461458 11698.376196 C 5949.715207 11649.545398 6047.45114 11628.230367 6102.609043 11660.00914 C 6157.960482 11691.981686 6170.733891 11777.048036 6232.278498 11823.747331 C 6294.016642 11870.446625 6404.525983 11878.972637 6487.359605 11845.062361 C 6570.193228 11810.958312 6625.544667 11734.417975 6680.702569 11753.601502 C 6736.054008 11772.78503 6791.405447 11887.49865 6801.856418 11998.143036 C 6812.500926 12108.59365 6778.632038 12214.97503 6704.120486 12268.068834 C 6629.80247 12321.162638 6515.035325 12321.162638 6421.557195 12278.532576 C 6327.885529 12236.096288 6255.696415 12151.029938 6232.278498 12017.132791 C 6208.860581 11883.235644 6234.407399 11700.507699 6208.860581 11594.126318 C 6183.5073 11487.938711 6106.866846 11458.291441 6041.064436 11426.318895 C 5975.068489 11394.346349 5919.910586 11360.436073 5894.363768 11283.895735 C 5868.81695 11207.355398 5873.074753 11088.378772 5907.137177 10982.191164 C 5941.199601 10875.809784 6004.87311 10782.217422 6079.191126 10746.175643 C 6153.702679 10709.940091 6238.665202 10731.255121 6315.11212 10752.570152 C 6391.752574 10773.885183 6459.683886 10795.00644 6565.935425 10780.279692 C 6672.3805 10765.35917 6816.758729 10714.203097 6931.525874 10699.476348 C 7046.293018 10684.555827 7131.449078 10705.870857 7078.226541 10784.348925 C 7025.19754 10863.020766 6833.789941 10999.049416 6648.962583 11124.420551 C 6463.941689 11249.985459 6285.501036 11364.699079 6170.733891 11381.751103 C 6055.966746 11398.609355 6004.87311 11317.806011 5996.357504 11220.144416 C 5987.841898 11122.482821 6021.904322 11007.575428 6062.353451 10920.571348 C 6102.609043 10833.373496 6149.444876 10773.885183 6136.671467 10695.213342 C 6123.898058 10616.541502 6051.708943 10518.686133 6051.708943 10423.156041 C 6051.708943 10327.432176 6123.898058 10233.839814 6225.891793 10176.483004 C 6327.885529 10119.126195 6459.683886 10097.811164 6572.322129 10129.78371 C 6684.960372 10161.756256 6778.632038 10246.628833 6882.754676 10370.062238 C 6986.877313 10493.108097 7101.644457 10654.714784 7080.355442 10722.729109 C 7059.066427 10790.743434 6901.914789 10765.35917 6746.698516 10763.227667 C 6591.482243 10761.096164 6438.394871 10782.217422 6332.143332 10735.518127 C 6225.891793 10688.818833 6166.476088 10573.91144 6168.604989 10482.644354 C 6170.733891 10391.183495 6234.407399 10323.16917 6319.56346 10253.023342 C 6404.525983 10182.877514 6510.777522 10110.600182 6565.935425 10025.533833 C 6621.286864 9940.661256 6625.544667 9842.805888 6648.962583 9708.90874 C 6672.3805 9575.011593 6714.764993 9405.072666 6880.625774 9322.13782 C 7046.293018 9239.202973 7335.43655 9243.465979 7696.769196 9345.584354 C 8058.101842 9447.508955 8491.623603 9647.288924 8923.209999 9876.909937 C 9354.602858 10106.337176 9783.866815 10365.799232 10047.463529 10586.700459 C 10311.060242 10807.795459 10408.796175 10990.523404 10470.534319 11211.618404 C 10532.078926 11432.713404 10557.625744 11691.981686 10540.594532 11904.550674 C 10523.56332 12117.119662 10464.147614 12282.989355 10368.540583 12384.913957 C 10272.740015 12486.838558 10140.941659 12525.205613 9979.532217 12387.04546 C 9817.92924 12248.885306 9626.715177 11934.197944 9428.920874 11617.572852 C 9231.320107 11300.94776 9027.332636 10982.191164 8791.411642 10763.227667 C 8555.490648 10544.26417 8287.636131 10425.287544 8092.164266 10463.460827 C 7896.498864 10501.634109 7773.216114 10697.344845 7698.898097 10992.654907 C 7624.580081 11288.158741 7599.033263 11683.455674 7658.448969 12017.132791 C 7718.058211 12350.809908 7862.629977 12622.867208 8090.035365 12882.329264 C 8317.440752 13141.597546 8627.679763 13388.07681 8791.411642 13564.410246 C 8954.949985 13740.937455 8971.981197 13847.125062 8880.631968 13944.98043 C 8789.28274 14042.835798 8589.359535 14131.971381 8298.280639 14231.958252 C 8007.008206 14331.751351 7624.580081 14442.201964 7350.33886 14463.516995 C 7076.097639 14484.832026 6910.430395 14416.8177 6736.054008 14342.408866 C 6561.677622 14268.193805 6378.979165 14187.390461 6310.854317 14093.798099 C 6242.923005 14000.205737 6289.758839 13894.018129 6383.236968 13855.651074 C 6476.715098 13817.477792 6617.029061 13847.125062 6842.305547 13919.402393 C 7067.582033 13991.679725 7378.01458 14106.587117 7637.159954 14146.891903 C 7896.498864 14187.390461 8104.744139 14153.286412 8298.280639 14119.376136 C 8491.623603 14085.272087 8670.257793 14051.361811 8725.415695 13991.679725 C 8780.767134 13932.191412 8712.642286 13847.125062 8621.293058 13766.321718 C 8529.94383 13685.712148 8415.176685 13609.17181 8317.440752 13556.078007 C 8219.70482 13502.984203 8138.806563 13473.14316 8047.457335 13464.617148 C 7956.108106 13456.091135 7854.114371 13468.880154 7688.25359 13490.195184 C 7522.392809 13511.316442 7292.85852 13541.157485 7161.060163 13536.894479 C 7029.455343 13532.631473 6995.392919 13494.458191 6982.61951 13441.364387 C 6969.846101 13388.07681 6978.361707 13320.062485 7012.424131 13264.837178 C 7046.293018 13209.611871 7105.90226 13167.175583 7156.80236 13173.376319 C 7207.895996 13179.770828 7250.474026 13234.996135 7254.731829 13307.46724 C 7258.989632 13379.550798 7224.927208 13468.880154 7184.47808 13513.447945 C 7144.222488 13558.20951 7097.386654 13558.20951 7059.066427 13536.894479 C 7020.939737 13515.579448 6991.135116 13473.14316 6946.428184 13443.49589 C 6901.914789 13413.654847 6842.305547 13396.602822 6793.340812 13415.78635 C 6744.569614 13434.969878 6706.249387 13490.195184 6687.089274 13532.631473 C 6668.122697 13575.261534 6668.122697 13604.908804 6682.831471 13594.251289 C 6697.733781 13583.787546 6727.538402 13532.631473 6789.083009 13536.894479 C 6850.821153 13541.157485 6944.299283 13600.645798 7054.808624 13628.355338 C 7165.317966 13655.871105 7292.85852 13651.608099 7422.527975 13634.749847 C 7552.19743 13617.697823 7683.995787 13587.85678 7779.602818 13556.078007 C 7875.403386 13524.299234 7934.819091 13490.195184 7915.658978 13445.43362 C 7896.498864 13400.865829 7798.762932 13345.640522 7694.640294 13290.221442 C 7590.517657 13234.996135 7480.008316 13179.770828 7384.401284 13143.729049 C 7288.600717 13107.68727 7207.895996 13090.635246 7142.093586 13116.019509 C 7076.097639 13141.597546 7025.19754 13209.611871 7003.908525 13228.601626 C 6982.61951 13247.785154 6991.135116 13218.137884 7001.779623 13154.386565 C 7012.424131 13090.635246 7025.004003 12992.779877 7137.835783 12948.018313 C 7250.474026 12903.450521 7462.977104 12911.976534 7626.708983 12999.174387 C 7790.247326 13086.372239 7905.01447 13252.04816 8019.781615 13417.917853 " stroke="#000000" stroke-width="37.298" stroke-opacity="1" stroke-miterlimit="22.926001"/><g clip-path="url(#aa709b9dbb)"><path stroke-linecap="round" transform="matrix(0.0142971, 0, 0, -0.0142797, -69.14095, 329.064638)" fill="none" stroke-linejoin="round" d="M 5702.934081 8347.633169 C 5647.743735 8453.2248 5592.826609 8558.542877 5490.096064 8898.29626 C 5387.36552 9238.323197 5237.367995 9812.511885 5108.135156 10526.486385 C 4978.629097 11240.460885 4870.160942 12093.947644 4908.958116 12644.884289 C 4947.755289 13195.820934 5134.091012 13444.207466 5242.559167 13640.892395 C 5351.300541 13837.577324 5382.447568 13982.287099 5395.288886 14116.875395 C 5408.130204 14251.190138 5402.939033 14375.383404 5413.321375 14522.828713 C 5423.703718 14670.274021 5449.659573 14840.971373 5516.871579 14980.757185 C 5584.083584 15120.542997 5692.824959 15229.143716 5842.822483 15255.131294 C 5992.820007 15280.845318 6184.073681 15223.946201 6341.721352 15089.631458 C 6499.369023 14955.316714 6622.864252 14743.859899 6625.323228 14596.41459 C 6628.055423 14448.969282 6509.478146 14365.53548 6370.136183 14342.009883 C 6230.794221 14318.484287 6070.414355 14354.866895 5990.087812 14419.425509 C 5910.034488 14483.984123 5910.034488 14577.265849 5943.640491 14628.967451 C 5977.246493 14680.669052 6044.458499 14691.064083 6145.276507 14665.350059 C 6246.367734 14639.362482 6380.791745 14577.265849 6448.00375 14512.707235 C 6515.215756 14447.875068 6515.215756 14380.580919 6396.365259 14336.812368 C 6277.241542 14292.770263 6039.267328 14271.9802 5853.204825 14277.177716 C 5666.869103 14282.375231 5532.445092 14313.286771 5400.480057 14398.909 C 5268.515022 14483.984123 5139.008963 14623.769935 5069.337982 14714.316126 C 4999.393781 14804.862318 4989.011439 14846.168889 5035.731979 14825.65238 C 5082.1793 14804.862318 5185.729504 14721.975623 5270.973998 14685.866568 C 5356.491712 14649.757513 5423.703718 14659.87899 5493.647918 14683.404587 C 5563.318899 14706.65663 5635.722076 14742.765685 5723.698766 14760.820213 C 5811.675456 14778.87474 5915.225659 14778.87474 6031.617181 14747.963201 C 6148.008702 14716.778108 6277.241542 14654.681475 6387.622233 14581.369151 C 6498.002925 14508.056826 6589.531469 14423.528811 6591.990445 14524.470033 C 6594.72264 14625.411256 6508.385267 14911.821716 6465.216581 15158.293373 C 6422.047895 15405.038584 6422.047895 15611.844991 6479.150777 15710.050679 C 6535.98044 15808.52992 6649.639766 15798.134889 6696.360307 15746.433287 C 6742.807628 15694.731685 6722.316163 15601.723513 6579.968785 15596.525998 C 6437.621408 15591.328482 6173.964558 15673.941623 5966.864151 15723.181244 C 5760.036964 15772.420865 5610.03944 15787.739858 5524.521726 15705.126717 C 5439.277231 15622.240022 5418.512546 15441.147639 5408.130204 15456.740185 C 5397.747862 15472.332732 5397.747862 15684.336654 5446.927378 15870.626553 C 5496.106894 16056.916451 5594.465926 16217.218772 5788.451795 16258.525343 C 5982.437665 16300.105467 6272.050371 16222.416287 6476.418582 16025.731358 C 6681.060013 15829.319982 6799.91051 15513.639303 6813.025048 15156.652053 C 6825.866366 14799.664802 6732.971724 14401.097428 6557.018344 14052.043228 C 6381.064965 13702.715474 6122.326066 13402.627341 6042.272743 13141.383798 C 5961.9462 12880.140255 6060.305232 12657.741302 6181.887924 12531.086055 C 6303.470617 12404.157255 6448.27697 12373.245715 6528.330293 12476.648919 C 6608.656836 12580.052122 6624.23035 12818.043622 6528.330293 12929.379876 C 6432.703457 13040.442576 6225.876269 13025.123583 6088.720063 12975.883962 C 5951.563857 12926.644341 5884.351852 12844.0312 5894.734194 12725.03545 C 5905.116536 12606.0397 5993.093226 12450.934895 5987.902055 12391.300243 C 5982.710884 12331.665591 5884.351852 12368.0482 5817.139847 12468.989422 C 5749.927841 12569.930645 5713.589643 12735.430481 5718.780814 12854.426231 C 5723.971985 12973.421981 5770.692526 13045.640091 5850.745849 12955.0939 C 5931.072392 12864.821262 6044.731718 12611.237215 6163.855435 12463.791907 C 6282.705932 12316.346598 6407.02082 12274.766474 6525.871318 12337.13666 C 6644.995034 12399.233293 6758.654361 12564.459576 6888.16042 12616.434731 C 7017.393259 12668.136333 7162.199612 12606.0397 7198.53781 12517.955489 C 7234.602789 12430.144832 7162.199612 12316.346598 7226.952642 12261.909462 C 7291.705671 12207.472325 7493.341687 12212.669841 7653.721554 12316.346598 C 7814.10142 12419.749801 7933.225137 12621.632246 7930.492942 12807.922145 C 7928.033966 12993.93849 7803.719078 13164.635841 7646.071407 13221.534959 C 7488.150516 13278.707629 7296.896842 13221.534959 7154.549465 13094.879712 C 7012.202088 12968.224465 6919.034227 12771.539536 6784.610216 12492.241465 C 6650.186206 12212.669841 6474.232826 11850.758629 6305.929593 11723.829829 C 6137.899579 11597.174582 5977.519713 11705.775301 5845.554678 11718.632313 C 5713.589643 11731.762879 5610.312659 11648.876184 5527.527141 11524.682918 C 5444.741622 11400.489653 5382.447568 11234.989816 5374.797421 11079.885011 C 5367.147274 10924.506653 5413.594595 10779.796878 5436.818255 10694.448202 C 5460.041916 10609.099527 5460.041916 10583.111949 5429.168108 10513.35582 C 5398.021081 10443.59969 5336.000247 10329.801456 5346.38259 10223.662718 C 5356.764932 10117.52398 5439.550451 10019.318292 5643.918662 9952.024144 C 5848.286873 9884.729995 6174.237777 9848.62094 6494.99751 9866.675468 C 6815.757243 9884.729995 7131.325805 9957.221659 7413.015144 10071.019894 C 7694.977703 10184.818128 7943.33426 10339.922933 7992.513776 10518.553335 C 8041.693292 10696.910183 7891.695768 10898.792628 7653.721554 11092.742023 C 7415.74734 11286.691418 7089.796436 11472.981317 6864.66354 11589.515086 C 6639.803863 11705.775301 6515.488975 11752.279387 6536.25366 11710.972817 C 6557.018344 11669.666246 6722.589382 11540.275465 6784.610216 11410.884684 C 6846.63105 11281.493903 6805.374901 11152.376675 6732.971724 11053.897434 C 6660.295328 10955.691746 6557.018344 10888.397597 6407.02082 10803.048921 C 6256.750077 10717.700246 6060.305232 10614.297042 5892.001999 10596.242514 C 5723.971985 10577.914433 5584.356804 10645.208582 5617.962806 10696.910183 C 5651.568809 10748.611785 5858.395996 10784.994394 6153.473093 10759.006816 C 6448.27697 10733.292792 6831.057537 10645.208582 7151.81727 10583.111949 C 7472.577003 10521.015316 7731.315901 10484.906261 7674.486238 10487.368242 C 7617.656575 10490.103777 7244.985131 10531.410347 6939.798912 10536.607863 C 6634.612692 10541.805378 6396.638478 10510.620285 6243.908759 10428.007144 C 6091.452259 10345.120449 6023.967034 10210.805706 6052.655085 10086.61244 C 6081.069916 9962.419175 6205.111585 9848.62094 6192.270267 9631.419502 C 6179.428949 9413.944511 6029.158205 9093.339869 6044.731718 8790.516202 C 6060.305232 8487.966088 6241.449783 8203.470501 6458.659312 8071.344186 C 6675.868842 7939.491424 6929.416569 7960.281486 7071.763946 8107.726795 C 7214.111324 8255.172103 7244.985131 8529.272658 7141.434928 8762.066643 C 7038.157944 8994.860628 6800.18373 9186.348041 6528.603513 9258.839705 C 6257.023296 9331.057816 5951.563857 9284.553729 5752.386817 9134.64644 C 5553.209777 8984.465597 5460.041916 8731.155103 5599.930317 8485.230553 C 5739.545499 8239.579557 6111.943724 8001.588057 6572.318638 7873.565043 C 7032.693553 7745.268475 7581.045158 7726.940394 7891.422548 7716.818917 C 8201.799939 7706.423886 8274.476335 7703.961905 8466.003228 7092.296394 C 8657.256902 6480.630884 8967.907512 5259.761843 9278.284903 4038.61925 " stroke="#000000" stroke-width="52.652" stroke-opacity="1" stroke-miterlimit="22.926001"/></g><path stroke-linecap="round" transform="matrix(0.0190349, 0, 0, -0.0190117, -69.14095, 329.064638)" fill="none" stroke-linejoin="round" d="M 4091.18023 11920.612239 C 4374.376716 12540.912994 4657.162772 13161.419215 4907.524883 13572.761418 C 5157.886993 13984.103622 5375.414728 14186.076342 5491.97676 14248.33243 C 5608.538792 14310.588517 5624.13512 14232.717041 5558.05594 14201.69173 C 5491.97676 14170.666419 5344.427287 14186.076342 5336.629123 14353.119904 C 5328.830959 14520.368932 5460.989319 14838.840668 5678.517054 15173.133257 C 5896.044789 15507.220382 6199.147115 15856.922894 6735.578719 16047.595004 C 7271.805108 16237.856183 8041.155561 16268.881494 8810.506014 16299.906805 " stroke="#000000" stroke-width="39.548" stroke-opacity="1" stroke-miterlimit="22.926001"/><path stroke-linecap="round" transform="matrix(0.0132786, 0, 0, -0.0132624, -69.14095, 329.064638)" fill="none" stroke-linejoin="round" d="M 13675.653451 6259.618726 C 13604.462989 6119.714607 13533.272527 5979.810488 13538.27351 5854.633118 C 13543.274493 5729.750284 13624.466921 5619.594198 13720.073946 5483.224499 C 13815.680972 5347.149335 13925.996771 5184.566022 13905.698664 5054.087022 C 13885.400557 4923.608023 13734.488544 4825.233337 13430.016939 4828.178687 C 13125.83951 4830.829502 12667.514137 4935.389422 12325.388073 5167.188457 C 11983.262009 5399.282028 11757.041077 5758.614712 11557.295937 6167.429275 C 11356.962446 6576.243837 11183.104747 7034.245743 10994.832451 7402.709012 C 10806.265978 7770.877747 10603.284908 8049.21331 10339.409517 8356.413302 C 10075.828302 8663.613294 9751.05859 8999.972249 9539.252256 9487.133118 C 9327.740098 9974.293988 9229.191317 10611.962236 9197.126192 11255.815718 C 9165.355242 11899.374666 9200.067946 12548.824313 9188.595103 12893.724783 C 9176.828085 13238.625254 9118.875518 13279.271082 9139.173625 13114.036954 C 9159.471732 12948.802826 9258.020513 12577.688742 9463.943337 12287.866314 C 9669.866162 11997.749352 9982.868855 11789.21858 10278.515196 11757.114267 C 10574.161537 11725.304488 10852.745702 11870.215702 11154.275552 11907.91618 C 11455.805402 11945.616659 11780.280939 11876.106402 12035.625241 11742.682052 C 12290.675368 11609.552238 12476.300086 11412.213796 12505.129281 11325.325975 C 12534.252652 11238.143619 12406.580501 11261.411883 12250.079154 11287.625497 C 12093.577808 11313.544576 11907.95309 11342.703539 11716.739039 11339.75819 C 11525.230812 11336.81284 11328.133251 11302.057711 11148.392043 11313.544576 C 10968.650834 11325.325975 10806.265978 11383.349368 10664.179229 11478.778704 C 10522.09248 11574.502575 10400.303838 11707.926924 10293.22397 11789.21858 C 10185.849925 11870.215702 10093.184654 11899.374666 10165.551818 11945.616659 C 10237.918982 11992.153187 10475.906933 12055.772744 10736.840569 12116.741486 C 10997.48003 12177.710229 11281.653528 12235.439086 11557.295937 12226.897572 C 11832.644171 12218.061522 12099.461317 12142.9551 12279.202525 11957.398058 C 12458.943733 11771.841016 12551.609005 11476.127889 12638.684942 11464.346489 C 12725.466704 11452.859625 12806.659132 11725.304488 12798.128043 11940.020494 C 12789.302779 12154.441965 12690.753999 12311.134578 12496.598193 12476.368706 C 12302.442387 12641.602834 12012.38538 12815.378477 11684.673913 12948.802826 C 11356.962446 13082.227175 10991.890696 13175.005696 10719.190041 13180.896396 C 10446.783562 13186.492561 10267.042353 13105.495439 10110.541007 12951.748176 C 9954.03966 12798.000912 9820.483999 12571.798042 9817.542245 12525.556049 C 9814.894666 12479.019521 9942.272641 12612.44387 10171.435328 12676.357963 C 10400.303838 12739.97752 10730.95706 12734.381355 11110.737583 12635.712134 C 11490.518107 12537.042914 11919.720108 12345.889707 12232.722802 12171.819529 C 12545.725495 11997.749352 12743.117231 11841.351273 12838.724257 11510.883017 C 12934.331283 11180.414761 12928.447774 10675.876328 12850.1971 10295.926194 C 12771.946427 9916.270595 12621.328589 9661.203296 12545.725495 9437.945776 C 12470.416577 9214.688255 12470.416577 9023.240513 12551.609005 8898.652214 C 12632.801433 8773.769379 12795.186289 8716.040521 12914.033176 8698.662957 C 13032.880063 8680.990858 13108.188982 8704.259122 13070.534523 8724.582036 C 13032.880063 8744.90495 12881.96805 8762.282514 12804.011552 8814.415207 C 12725.466704 8866.5479 12719.87737 8953.730256 12829.898993 8991.430735 C 12940.214792 9029.131213 13166.435724 9017.349813 13334.409914 8939.298042 C 13502.678279 8860.951735 13612.699902 8716.040521 13737.430299 8724.582036 C 13862.160695 8733.418086 14001.30569 8895.706864 14128.683666 8985.540035 C 14256.355817 9075.373206 14372.26095 9092.75077 14450.511623 9055.050292 C 14528.762296 9017.349813 14569.35851 8924.571292 14528.762296 8834.738121 C 14488.166082 8744.90495 14366.671616 8658.017129 14384.027968 8655.071779 C 14401.38432 8652.126429 14557.885667 8733.418086 14662.317957 8840.628821 C 14766.456071 8947.839556 14818.819303 9081.263906 14830.292147 9182.583941 C 14842.059165 9284.198512 14812.935794 9353.708769 14757.924982 9411.732162 C 14702.914171 9469.755554 14621.721743 9515.997547 14537.58756 9527.778947 C 14453.453378 9539.265811 14366.671616 9515.997547 14279.595678 9551.047211 C 14192.519741 9585.802339 14105.443804 9678.58086 13986.891092 9727.768203 C 13867.750029 9776.955546 13717.132192 9782.846246 13557.68909 9768.414032 C 13398.245989 9753.981817 13229.977624 9718.932154 13093.774384 9666.799461 C 12957.571144 9614.666768 12853.138855 9545.156511 12786.361025 9481.242419 C 12719.87737 9417.622861 12690.753999 9359.599469 12684.87049 9298.630727 C 12679.281156 9237.956519 12696.637508 9174.042427 12743.117231 9101.58682 C 12789.302779 9029.131213 12864.611698 8947.839556 13001.109113 8831.792771 C 13137.312353 8716.040521 13334.409914 8565.238608 13409.718832 8420.327394 C 13485.321926 8275.121645 13438.842203 8136.101131 13438.842203 8046.26796 C 13438.842203 7956.434789 13485.321926 7915.78896 13566.514354 7883.684647 C 13647.706782 7851.874868 13763.611915 7828.606604 13850.393677 7895.466046 C 13937.469614 7962.030953 13995.422181 8118.723567 13986.008566 8278.066995 C 13976.300775 8437.704958 13899.226804 8599.699201 13829.507219 8617.371301 C 13760.08181 8634.748865 13698.010787 8507.215215 13664.180608 8370.845516 C 13630.056255 8234.770352 13624.466921 8089.564603 13635.939764 7967.921653 C 13647.706782 7846.278703 13676.535978 7747.609483 13690.950576 7634.508047 C 13705.365173 7521.406612 13705.365173 7393.872963 13676.535978 7306.985141 C 13647.706782 7219.802785 13589.754216 7173.560792 13453.256801 7159.128578 C 13317.053561 7144.401828 13102.599648 7162.073928 12908.149667 7176.506142 C 12713.993861 7190.938356 12540.136161 7202.425221 12383.634815 7246.016399 C 12226.839293 7289.607577 12087.694298 7365.008534 12058.865103 7327.308055 C 12029.741732 7289.607577 12110.93416 7138.805664 12232.722802 6985.0584 C 12354.511444 6831.311137 12516.8963 6674.913058 12716.935615 6550.324759 C 12916.974931 6425.441924 13154.668705 6332.663403 13372.064373 6289.36676 C 13589.754216 6245.775582 13786.851777 6251.666281 13978.065828 6297.908274 C 14169.27988 6344.444802 14354.904597 6431.332624 14517.289453 6521.165795 C 14679.674309 6610.998966 14818.819303 6703.777487 14937.666191 6840.147186 C 15056.513078 6976.516885 15155.061859 7156.183228 15265.377657 7251.907099 C 15375.399281 7347.63097 15497.187923 7359.117834 15529.253048 7321.417356 C 15561.023998 7283.716877 15503.071432 7196.829056 15375.399281 7237.474884 C 15248.021305 7277.826178 15050.923744 7446.005655 14839.11741 7588.266054 C 14627.605252 7730.231918 14401.38432 7846.278703 14207.52269 7849.518588 C 14013.661059 7853.053008 13852.452905 7743.780528 13690.068049 7749.671227 C 13527.683193 7755.267392 13364.415811 7876.026737 13192.911515 7896.055116 C 13021.40722 7915.78896 12841.371836 7834.497304 12678.398629 7718.450519 C 12515.131247 7602.403734 12368.043515 7451.307285 12221.249959 7300.210837 " stroke="#000000" stroke-width="56.693001" stroke-opacity="1" stroke-miterlimit="22.926001"/><g clip-path="url(#aeb2a8f66f)"><path stroke-linecap="round" transform="matrix(0.0189353, 0, 0, -0.0189122, -69.14095, 329.064638)" fill="none" stroke-linejoin="round" d="M 14376.039347 14365.81898 C 14320.133625 14335.250132 14264.227904 14304.681285 14200.483004 14246.022145 C 14136.944398 14187.569551 14065.772908 14101.026666 13958.706231 14027.289648 C 13851.845848 13953.552631 13709.502868 13892.414936 13574.586477 13874.651957 C 13439.670087 13856.888978 13312.386581 13882.294169 13210.683552 13933.104551 C 13108.77423 13983.914932 13032.445385 14060.337051 12999.438317 14157.000704 C 12966.224955 14253.870903 12976.539664 14370.77609 13047.711154 14447.198209 C 13119.088939 14523.413781 13251.323505 14559.146286 13375.925187 14582.072921 C 13500.733162 14604.999557 13617.70196 14615.120324 13681.44686 14576.909265 C 13744.985466 14538.904751 13755.300174 14452.361866 13750.14282 14358.176768 C 13744.985466 14263.99167 13724.768636 14162.164361 13661.023736 14093.591 C 13597.485131 14024.604547 13490.418454 13989.078589 13350.551003 13960.988297 C 13210.683552 13933.104551 13037.60274 13912.863016 12889.89611 13907.69936 C 12742.395775 13902.535703 12620.269624 13912.863016 12528.67501 13922.983784 C 12437.080396 13933.104551 12375.811026 13943.225318 12437.080396 14052.901385 C 12497.937178 14162.164361 12681.3327 14370.77609 12884.94505 14495.530035 C 13088.351107 14620.283981 13312.386581 14660.973595 13510.841577 14676.258019 C 13709.502868 14691.542443 13882.377386 14681.215129 14017.293777 14640.525515 C 14152.210167 14599.8359 14248.962135 14528.577438 14345.507809 14500.693692 C 14442.259777 14472.6034 14539.011745 14487.887824 14536.536215 14467.646289 C 14533.854391 14447.198209 14432.151362 14391.224171 14353.140693 14375.939747 C 14274.336319 14360.655323 14218.430597 14386.060514 14141.895458 14421.793018 C 14065.772908 14457.318976 13969.02094 14503.172247 13841.737434 14541.383307 C 13714.453928 14579.38782 13556.638884 14610.163214 13421.722493 14607.478112 C 13287.012397 14604.999557 13174.99466 14569.473599 13042.760094 14490.572925 C 12910.319234 14411.672251 12757.661544 14289.396861 12638.010923 14177.448784 C 12518.360301 14065.500708 12431.923042 13963.673398 12396.23415 13978.957822 C 12360.545258 13994.242246 12375.811026 14126.431856 12414.181743 14271.633882 C 12452.346165 14416.629361 12513.409241 14574.430709 12559.000254 14729.753502 C 12604.797561 14884.869749 12635.535393 15037.50744 12561.682078 15001.981482 C 12487.828763 14966.248978 12309.79689 14742.352824 12261.317759 14630.404748 C 12213.044922 14518.456671 12294.531122 14518.456671 12462.45458 14574.430709 C 12630.378038 14630.404748 12884.94505 14742.352824 13167.361776 14856.986002 C 13449.778501 14971.412634 13760.251235 15088.524368 14024.926661 15131.692537 C 14289.602088 15175.067254 14508.480207 15144.498406 14651.029482 15047.834753 C 14793.578757 14951.1711 14859.592893 14788.206096 14851.960008 14816.089842 C 14844.327124 14844.180134 14763.047219 15062.912631 14673.928135 15213.278313 C 14584.809052 15363.230903 14488.057084 15444.816678 14325.29098 15498.105615 C 14162.318582 15551.601098 13933.332047 15577.006289 13658.548206 15549.122543 C 13383.558071 15521.032251 13062.976923 15439.653021 12805.934381 15279.373118 C 12549.098133 15119.093215 12355.594197 14879.706092 12210.569392 14592.193688 C 12065.338293 14304.681285 11968.792619 13968.837055 11938.261081 13632.786279 C 11907.729543 13296.942049 11943.212142 12961.097819 11968.792619 12729.352907 C 11994.166803 12497.814542 12009.432572 12370.582042 12088.236947 12281.5606 C 12167.247616 12192.539159 12309.79689 12141.522232 12398.70968 12083.069638 C 12487.828763 12024.410498 12523.517656 11958.315693 12518.360301 11869.294252 C 12513.409241 11780.272811 12467.611934 11668.324734 12360.545258 11586.738959 C 12253.891169 11505.359729 12085.761416 11454.549348 12050.278818 11454.549348 C 12014.589926 11454.549348 12111.1356 11505.359729 12167.247616 11558.855213 C 12223.153337 11612.350696 12238.419106 11668.118188 12217.995983 11703.850692 C 12197.779153 11739.583196 12141.873432 11754.86762 12050.278818 11734.419539 C 11958.477911 11713.971459 11831.400699 11658.203967 11711.750077 11594.587717 C 11592.099456 11530.76492 11480.081719 11459.713004 11370.745806 11472.312327 C 11261.409893 11484.911649 11154.343217 11581.781848 11037.374419 11658.203967 C 10920.199328 11734.419539 10792.915822 11790.393578 10706.478563 11805.678002 C 10620.041303 11820.962425 10574.243997 11795.557234 10607.251065 11729.255883 C 10640.258133 11663.161077 10752.27587 11556.376657 10759.908754 11533.450022 C 10767.541638 11510.523386 10670.995965 11571.454535 10576.719527 11622.471463 C 10482.443089 11673.281844 10390.848475 11713.971459 10332.467224 11785.229921 C 10273.879678 11856.694929 10248.2992 11958.315693 10245.82367 12060.143002 C 10243.34814 12161.970312 10263.771263 12263.797622 10253.456554 12215.465795 C 10243.34814 12166.927422 10202.501893 11968.43646 10197.550833 11833.768294 C 10192.393479 11698.893582 10222.925017 11627.428573 10355.365877 11563.812323 C 10487.806737 11500.196073 10721.744332 11444.222034 10841.394953 11365.321361 C 10961.045575 11286.420687 10965.996635 11184.593377 10961.045575 11052.403766 C 10955.88822 10920.007609 10940.622451 10757.249151 10910.090913 10630.01665 C 10879.559375 10502.78415 10833.762069 10411.077607 10767.541638 10360.267226 C 10701.321208 10309.250298 10614.883949 10299.129531 10492.757797 10291.487319 C 10370.631646 10283.845107 10212.816602 10278.887997 10037.260259 10283.845107 C 9861.703916 10288.802217 9668.19998 10304.293187 9624.878203 10324.534722 C 9581.762721 10344.982802 9688.623103 10370.387993 9828.490554 10446.603565 C 9968.564299 10523.025684 10141.645112 10650.258185 10296.778331 10749.606939 C 10451.911551 10848.749147 10589.303471 10920.007609 10744.642985 10932.813478 C 10899.982499 10945.4128 11073.063312 10899.766075 11195.189463 10876.839439 C 11317.315615 10853.912804 11388.487105 10853.912804 11467.29148 10876.839439 C 11546.302149 10899.766075 11632.739408 10945.4128 11744.757145 10927.649821 C 11856.774882 10909.886842 11994.166803 10828.507613 12190.146269 10708.710778 C 12386.125735 10589.12049 12640.692747 10431.525688 12676.175345 10370.387993 C 12711.864237 10309.250298 12528.67501 10344.982802 12360.545258 10339.819145 C 12192.621799 10334.862035 12039.96411 10288.802217 11877.198006 10248.112603 C 11714.225607 10207.422988 11541.144795 10171.89703 11548.777679 10171.89703 C 11556.410564 10171.89703 11744.757145 10207.422988 12014.589926 10220.228857 C 12284.216413 10232.828179 12635.535393 10222.707412 12790.668612 10240.676937 C 12945.801832 10258.439916 12905.161879 10304.293187 12862.046397 10283.845107 C 12818.72462 10263.397027 12772.927313 10177.060687 12709.388707 10049.62164 C 12645.643807 9922.595686 12564.157608 9754.467025 12447.188811 9622.277414 C 12330.01372 9489.881257 12177.35603 9393.217604 12001.799687 9337.243566 C 11826.243344 9281.269527 11627.788348 9265.985104 11380.854221 9286.226638 C 11133.920093 9306.674718 10838.713129 9362.648757 10604.775534 9464.476066 C 10370.631646 9566.303376 10197.550833 9713.77741 10049.844204 9858.77289 C 9902.343869 10003.974915 9780.217717 10146.49184 9775.060363 10210.10809 C 9770.109303 10273.72434 9881.920745 10258.439916 10062.634443 10245.634048 C 10243.34814 10232.828179 10492.757797 10222.707412 10719.268802 10207.422988 C 10945.779806 10192.138565 11149.392156 10171.89703 11268.836484 10098.160013 C 11388.487105 10024.21645 11424.175997 9896.983949 11439.441766 9716.462512 C 11454.707535 9535.734528 11449.550181 9301.511062 11373.221336 9077.614908 C 11296.892491 8853.718755 11149.392156 8639.943369 11080.696196 8436.28875 C 11012.000236 8232.63413 11022.10865 8039.306825 11141.759272 7942.643172 C 11261.409893 7845.979519 11490.190133 7845.979519 11744.757145 7940.164616 C 11999.324157 8034.143168 12279.265353 8222.513363 12594.89544 8525.310191 C 12910.319234 8828.107018 13261.43192 9245.537023 13579.537537 9642.518948 C 13897.643155 10039.500873 14182.741705 10416.241264 14383.878525 10846.270592 C 14584.809052 11276.299919 14701.984143 11759.82473 14803.687172 12133.88002 C 14905.596494 12507.935309 14992.033753 12772.727623 15023.390468 12983.198269 C 15054.747182 13193.875461 15031.023352 13350.230985 15002.967345 13332.468006 C 14974.911337 13314.498481 14942.729445 13122.410453 14944.586093 12975.556057 C 14946.236446 12828.701662 14981.719044 12726.874352 15058.254183 12747.322432 C 15134.583028 12767.563967 15251.551825 12910.080891 15350.779323 13225.683587 C 15450.006822 13541.286282 15531.493021 14029.97475 15602.664511 14477.767056 C 15674.042296 14925.559363 15735.105371 15332.868601 15719.839602 15612.738793 C 15704.573834 15892.608985 15612.97922 16045.246676 15495.804128 16009.720718 C 15378.835331 15974.19476 15236.286056 15750.092061 15172.541156 15314.899076 C 15109.00255 14879.706092 15124.268319 14233.422823 15063.205244 13787.902525 C 15002.142168 13342.79532 14864.750247 13098.451086 14584.809052 12843.986085 C 14304.867856 12589.314538 13882.377386 12324.72877 13615.22643 11767.466942 C 13348.075473 11209.998568 13236.057736 10360.267226 13164.886246 9767.272894 C 13093.508461 9174.278561 13062.976923 8838.434331 12999.438317 8393.12058 C 12935.693417 7947.600282 12838.941449 7393.023555 12803.458851 6827.912969 C 12767.769959 6263.008929 12793.144142 5687.777576 12887.42058 5234.821613 C 12981.490724 4781.865649 13144.463122 4451.185076 13218.110143 4514.801326 C 13291.963457 4578.417576 13276.903983 5036.33065 13200.368844 5456.239211 C 13124.039999 5876.147771 12986.648078 6257.845273 12971.38231 6390.24143 C 12956.116541 6522.637587 13062.976923 6405.525853 13271.540334 6303.698544 C 13480.310039 6201.871234 13790.782772 6115.328348 14175.10882 5985.617293 C 14559.228574 5855.906237 15017.407937 5682.820466 15401.733985 5397.786617 C 15785.853738 5112.752769 16096.326472 4715.770844 16198.235794 4238.235875 C 16299.938822 3760.907452 16193.07844 3203.025985 16086.218057 2645.144518 " stroke="#000000" stroke-width="39.757" stroke-opacity="1" stroke-miterlimit="22.926001"/></g></svg>