<svg xmlns="http://www.w3.org/2000/svg" xmlns:xlink="http://www.w3.org/1999/xlink" width="370" zoomAndPan="magnify" viewBox="0 0 277.5 262.499992" height="350" preserveAspectRatio="xMidYMid meet" version="1.0"><defs><clipPath id="2f680a908e"><path d="M 5 0 L 276.988281 0 L 276.988281 261.722656 L 5 261.722656 Z M 5 0 " clip-rule="nonzero"/></clipPath></defs><path fill="#000000" d="M 64.0625 12.621094 C 62.757812 12.621094 61.570312 12.933594 60.851562 13.574219 C 59.941406 14.382812 59.917969 15.621094 60.773438 17.25 C 62.886719 21.285156 68.582031 21.257812 73.460938 20.535156 C 72.296875 17.890625 70.734375 15.375 68.628906 13.941406 C 67.351562 13.070312 65.625 12.621094 64.0625 12.621094 Z M 132.226562 25.722656 C 127.703125 25.722656 123.367188 26.71875 121.722656 30.707031 C 120.683594 33.226562 121.0625 36.058594 122.730469 38.285156 C 124.347656 40.445312 126.898438 41.566406 129.546875 41.285156 C 134.75 40.734375 139.144531 34.304688 139.839844 28.882812 C 139.945312 28.046875 139.988281 27.246094 139.964844 26.480469 C 138.882812 26.257812 137.804688 26.089844 136.726562 25.980469 C 135.269531 25.835938 133.734375 25.722656 132.226562 25.722656 Z M 134.238281 91.367188 C 133.710938 94.234375 133.644531 98.785156 135.101562 100.996094 C 135.886719 102.191406 136.757812 102.789062 137.492188 102.617188 C 138.386719 102.417969 139.097656 101.164062 139.355469 99.34375 C 139.667969 97.09375 139.054688 95.164062 137.53125 93.597656 C 136.652344 92.699219 135.519531 91.960938 134.238281 91.367188 Z M 72.238281 94.253906 C 71.105469 96.90625 70.851562 100.613281 71.78125 102.535156 C 72.621094 104.269531 73.53125 104.796875 74.042969 104.726562 C 74.644531 104.640625 75.152344 103.773438 75.371094 102.464844 C 75.796875 99.925781 73.90625 96.730469 72.238281 94.253906 Z M 121.527344 109.8125 C 120.871094 109.8125 120.121094 110.042969 119.457031 110.476562 C 117.488281 111.757812 116.613281 113.269531 116.851562 114.960938 C 116.9375 115.5625 117.15625 116.164062 117.476562 116.761719 C 119.082031 116.453125 120.753906 115.777344 121.925781 114.777344 C 123.050781 113.8125 123.539062 112.699219 123.386719 111.472656 C 123.292969 110.742188 122.96875 110.242188 122.429688 109.992188 C 122.167969 109.871094 121.859375 109.8125 121.527344 109.8125 Z M 75.902344 89.773438 C 82.101562 89.773438 83.617188 96.980469 84.726562 102.265625 C 84.984375 103.476562 85.222656 104.621094 85.492188 105.519531 C 87.839844 113.445312 93.015625 119.53125 100.066406 122.65625 C 102.5 123.734375 105.429688 123.875 108.261719 124.011719 C 109.832031 124.085938 111.453125 124.164062 112.957031 124.402344 C 117.214844 125.078125 118.382812 126.820312 119.738281 128.839844 C 120.519531 130.007812 121.40625 131.328125 123.089844 132.667969 C 124.78125 134.011719 126.9375 134.835938 129.019531 135.628906 C 129.757812 135.910156 130.484375 136.1875 131.167969 136.480469 C 131.691406 136.703125 132.203125 136.914062 132.699219 137.113281 C 131.972656 135.558594 131.507812 133.746094 131.117188 131.988281 C 130.847656 130.773438 130.691406 129.796875 130.5625 129.007812 C 130.066406 125.964844 130.046875 125.84375 125.277344 124.371094 C 122.570312 123.539062 118.773438 121.113281 116.804688 118.179688 C 115.59375 118.320312 114.46875 118.269531 113.617188 118.027344 C 107.875 116.386719 104.914062 110.351562 104.957031 105.238281 C 105.035156 95.515625 110.898438 89.28125 121.035156 88.132812 C 124.109375 87.785156 129.113281 88.035156 133.320312 89.566406 C 135.3125 82.742188 141.734375 78.359375 147.199219 75.277344 L 148.609375 74.484375 C 154.800781 71.011719 159.273438 68.503906 163.425781 61.941406 C 167.097656 56.136719 167.507812 49.921875 164.613281 43.96875 C 160.769531 36.082031 151.234375 29.214844 141.28125 26.773438 C 141.285156 27.507812 141.234375 28.265625 141.136719 29.046875 C 140.464844 34.285156 136.113281 41.902344 129.683594 42.585938 C 126.570312 42.910156 123.578125 41.601562 121.679688 39.066406 C 119.734375 36.46875 119.296875 33.15625 120.511719 30.210938 C 123.359375 23.308594 133.167969 24.308594 136.859375 24.679688 C 137.855469 24.78125 138.851562 24.929688 139.851562 25.125 C 139.503906 22.640625 138.394531 20.558594 136.535156 18.917969 C 129.53125 12.738281 113.652344 13.832031 105.285156 15.972656 C 100.242188 17.265625 95.027344 18.089844 89.984375 18.890625 C 86.265625 19.480469 82.417969 20.089844 78.671875 20.878906 L 78.417969 20.933594 C 77.492188 21.128906 76.429688 21.351562 75.289062 21.558594 C 76.246094 24.046875 76.875 26.46875 77.308594 28.125 C 80.171875 39.121094 76.265625 45.582031 71.328125 53.761719 C 70.15625 55.699219 68.949219 57.703125 67.753906 59.890625 C 61.25 71.808594 64.035156 79.855469 71.863281 91.402344 C 71.953125 91.53125 72.042969 91.664062 72.136719 91.800781 C 73.109375 90.515625 74.3125 89.820312 75.644531 89.777344 C 75.730469 89.773438 75.816406 89.773438 75.902344 89.773438 Z M 145.839844 148.992188 C 145.214844 150.023438 144.511719 151.066406 143.679688 152.117188 C 134.371094 163.851562 134.4375 173.417969 143.921875 187.417969 C 145.003906 189.015625 150.601562 196.894531 154.464844 195.136719 C 154.675781 195.039062 154.878906 194.929688 155.074219 194.8125 C 154.476562 193.699219 153.683594 192.671875 152.652344 191.769531 C 152.378906 191.53125 152.351562 191.117188 152.589844 190.84375 C 152.828125 190.574219 153.242188 190.546875 153.511719 190.785156 C 154.609375 191.742188 155.464844 192.832031 156.117188 194 C 161.117188 189.066406 157.261719 175.074219 155.726562 169.511719 L 155.671875 169.316406 C 153.660156 162.007812 150.300781 155.085938 145.839844 148.992188 Z M 156.714844 195.222656 C 159.066406 200.726562 157.585938 207.519531 156.105469 211.019531 C 154.328125 215.234375 150.96875 225.175781 150.191406 229.472656 C 149.566406 232.921875 150.207031 237.464844 151.867188 241.324219 C 151.988281 241.605469 152.144531 241.886719 152.328125 242.164062 C 153.976562 241.390625 155.6875 240.914062 157.351562 240.449219 C 160.234375 239.648438 162.957031 238.890625 165.183594 236.703125 C 165.996094 235.90625 166.761719 235.121094 167.511719 234.351562 C 170.617188 231.171875 173.550781 228.164062 178.15625 226.007812 C 179.15625 225.535156 180.210938 225.097656 181.226562 224.671875 C 184.273438 223.398438 187.417969 222.078125 189.671875 219.785156 C 191.597656 217.828125 193.167969 215.496094 194.6875 213.242188 C 196.144531 211.078125 197.652344 208.839844 199.496094 206.886719 C 201.824219 204.410156 204.546875 202.710938 207.183594 201.066406 C 209.148438 199.839844 211.183594 198.570312 213.023438 196.992188 C 217.414062 193.234375 218.988281 188.550781 220.652344 183.59375 C 221.207031 181.949219 221.777344 180.246094 222.464844 178.542969 C 222.90625 177.449219 223.761719 176.03125 224.75 174.382812 C 227.058594 170.542969 230.21875 165.285156 228.75 162.523438 C 228.058594 161.21875 226.300781 160.484375 223.527344 160.339844 C 222.355469 160.273438 221.144531 160.390625 219.859375 160.507812 C 217.769531 160.707031 215.609375 160.90625 213.546875 160.3125 C 210.210938 159.347656 204.175781 153.847656 202.425781 151.074219 C 198.25 144.464844 192.019531 139.488281 185.335938 137.433594 C 175.671875 134.460938 166.886719 133.84375 159.222656 135.601562 C 152.238281 137.203125 150.269531 140.882812 147.773438 145.542969 C 147.382812 146.277344 146.988281 147.019531 146.5625 147.765625 C 151.28125 154.097656 154.828125 161.324219 156.933594 168.96875 L 156.988281 169.164062 C 158.613281 175.054688 162.722656 189.960938 156.714844 195.222656 Z M 151.945312 243.832031 C 151.824219 243.898438 151.707031 243.96875 151.585938 244.042969 C 148.839844 245.714844 147.921875 247.851562 148.433594 249.097656 C 148.933594 250.308594 150.71875 250.710938 153.097656 250.144531 C 155.285156 249.625 155.75 249.0625 155.835938 248.773438 C 156.03125 248.09375 154.785156 246.824219 153.6875 245.710938 C 153.109375 245.121094 152.492188 244.492188 151.945312 243.832031 Z M 151.15625 251.703125 C 148.9375 251.703125 147.683594 250.710938 147.222656 249.59375 C 146.367188 247.511719 147.878906 244.769531 150.90625 242.925781 C 150.992188 242.875 151.078125 242.824219 151.164062 242.769531 C 150.972656 242.464844 150.800781 242.15625 150.664062 241.839844 C 149.289062 238.640625 148.105469 233.648438 148.90625 229.238281 C 149.722656 224.71875 153.105469 214.761719 154.902344 210.511719 C 156.265625 207.277344 157.65625 201.050781 155.628906 196.003906 C 155.429688 196.121094 155.222656 196.226562 155.007812 196.324219 C 150.304688 198.464844 144.503906 190.609375 142.839844 188.148438 C 133.089844 173.757812 133.039062 163.429688 142.652344 151.304688 C 143.566406 150.15625 144.320312 149.003906 144.996094 147.863281 C 143.949219 146.5 142.847656 145.183594 141.695312 143.917969 C 140.679688 142.804688 139.660156 141.964844 138.597656 141.28125 C 138.316406 141.265625 138.035156 141.242188 137.75 141.210938 C 136.015625 141.015625 134.753906 140.171875 133.808594 138.964844 C 133.59375 138.878906 133.378906 138.792969 133.160156 138.703125 C 132.363281 138.386719 131.53125 138.054688 130.652344 137.679688 C 129.984375 137.394531 129.277344 137.125 128.554688 136.851562 C 126.375 136.019531 124.125 135.160156 122.277344 133.691406 C 120.433594 132.226562 119.488281 130.8125 118.652344 129.566406 C 117.371094 127.660156 116.445312 126.277344 112.753906 125.695312 C 111.316406 125.464844 109.804688 125.394531 108.199219 125.316406 C 105.246094 125.175781 102.195312 125.027344 99.535156 123.851562 C 92.128906 120.570312 86.695312 114.191406 84.238281 105.890625 C 83.957031 104.941406 83.707031 103.773438 83.449219 102.535156 C 82.359375 97.355469 81.015625 90.914062 75.6875 91.082031 C 74.414062 91.125 73.503906 92.074219 72.929688 92.945312 C 74.875 95.777344 77.207031 99.433594 76.664062 102.679688 C 76.335938 104.628906 75.449219 105.84375 74.230469 106.019531 C 72.914062 106.207031 71.589844 105.144531 70.601562 103.105469 C 69.40625 100.625 69.785156 96.058594 71.382812 93.007812 C 71.167969 92.699219 70.964844 92.410156 70.78125 92.136719 C 62.65625 80.152344 59.78125 71.777344 66.605469 59.261719 C 67.8125 57.050781 69.03125 55.035156 70.207031 53.085938 C 74.988281 45.171875 78.765625 38.917969 76.039062 28.453125 C 75.605469 26.777344 74.957031 24.289062 73.976562 21.78125 C 68.644531 22.609375 62.160156 22.710938 59.613281 17.859375 C 58.078125 14.933594 59.183594 13.308594 59.980469 12.601562 C 62.019531 10.78125 66.492188 10.90625 69.363281 12.859375 C 71.792969 14.511719 73.53125 17.378906 74.789062 20.320312 C 76.019531 20.105469 77.164062 19.863281 78.148438 19.65625 L 78.402344 19.601562 C 82.183594 18.800781 86.042969 18.191406 89.78125 17.597656 C 94.792969 16.804688 99.976562 15.980469 104.960938 14.707031 C 113.585938 12.5 130.019531 11.421875 137.402344 17.9375 C 139.628906 19.90625 140.902344 22.414062 141.207031 25.417969 C 151.65625 27.867188 161.742188 35.085938 165.789062 43.398438 C 168.894531 49.777344 168.457031 56.429688 164.53125 62.640625 C 160.199219 69.484375 155.609375 72.058594 149.25 75.625 L 147.839844 76.417969 C 142.238281 79.578125 136.328125 83.660156 134.539062 90.058594 C 136.046875 90.730469 137.402344 91.597656 138.464844 92.6875 C 140.289062 94.554688 141.023438 96.855469 140.648438 99.523438 C 140.3125 101.933594 139.238281 103.566406 137.777344 103.894531 C 137.019531 104.066406 135.515625 104.011719 134.007812 101.714844 C 132.214844 98.988281 132.425781 93.746094 133.003906 90.851562 C 129.125 89.40625 124.328125 89.074219 121.183594 89.433594 C 111.636719 90.511719 106.339844 96.128906 106.261719 105.25 C 106.226562 109.867188 108.863281 115.308594 113.976562 116.769531 C 114.558594 116.9375 115.296875 116.992188 116.101562 116.941406 C 115.832031 116.351562 115.640625 115.75 115.554688 115.144531 C 115.339844 113.605469 115.71875 111.355469 118.742188 109.382812 C 120.144531 108.464844 121.765625 108.246094 122.976562 108.804688 C 123.929688 109.246094 124.535156 110.132812 124.683594 111.308594 C 124.894531 112.976562 124.234375 114.519531 122.777344 115.765625 C 121.550781 116.820312 119.890625 117.539062 118.242188 117.925781 C 120.085938 120.324219 123.328125 122.40625 125.664062 123.125 C 131.003906 124.769531 131.28125 125.285156 131.851562 128.796875 C 131.976562 129.570312 132.132812 130.527344 132.394531 131.703125 C 132.90625 134.015625 133.515625 136.308594 134.632812 137.886719 C 136.167969 138.507812 137.609375 139.132812 138.992188 139.984375 C 144.957031 140.117188 150.023438 135.785156 151.226562 129.304688 C 151.292969 128.949219 151.632812 128.71875 151.992188 128.78125 C 152.347656 128.851562 152.582031 129.191406 152.515625 129.546875 C 151.304688 136.035156 146.570312 140.566406 140.734375 141.21875 C 141.386719 141.738281 142.027344 142.339844 142.660156 143.039062 C 143.71875 144.199219 144.730469 145.398438 145.699219 146.636719 C 146.015625 146.0625 146.320312 145.492188 146.621094 144.925781 C 149.167969 140.171875 151.367188 136.0625 158.929688 134.328125 C 166.820312 132.519531 175.835938 133.144531 185.71875 136.183594 C 192.699219 138.332031 199.191406 143.503906 203.53125 150.378906 C 205.144531 152.929688 210.878906 158.179688 213.910156 159.054688 C 215.734375 159.582031 217.769531 159.390625 219.738281 159.207031 C 221.011719 159.089844 222.328125 158.964844 223.597656 159.03125 C 226.859375 159.207031 228.980469 160.171875 229.902344 161.910156 C 231.71875 165.328125 228.476562 170.722656 225.871094 175.058594 C 224.910156 176.65625 224.078125 178.035156 223.679688 179.03125 C 223.007812 180.699219 222.441406 182.382812 221.894531 184.007812 C 220.167969 189.140625 218.539062 193.992188 213.875 197.984375 C 211.960938 199.628906 209.882812 200.921875 207.875 202.175781 C 205.195312 203.851562 202.660156 205.433594 200.449219 207.78125 C 198.679688 209.65625 197.203125 211.851562 195.773438 213.972656 C 194.21875 216.277344 192.613281 218.660156 190.605469 220.703125 C 188.167969 223.183594 184.898438 224.550781 181.734375 225.875 C 180.726562 226.296875 179.6875 226.730469 178.710938 227.191406 C 174.320312 229.246094 171.601562 232.035156 168.449219 235.265625 C 167.695312 236.039062 166.917969 236.832031 166.097656 237.636719 C 163.632812 240.058594 160.621094 240.898438 157.703125 241.710938 C 156.183594 242.132812 154.625 242.566406 153.148438 243.226562 C 153.601562 243.757812 154.117188 244.277344 154.621094 244.792969 C 156.164062 246.367188 157.5 247.722656 157.089844 249.136719 C 156.796875 250.164062 155.625 250.886719 153.402344 251.417969 C 152.566406 251.617188 151.820312 251.703125 151.15625 251.703125 " fill-opacity="1" fill-rule="nonzero"/><g clip-path="url(#2f680a908e)"><path fill="#000000" d="M 156.1875 4.289062 C 152.542969 4.667969 149.164062 5.675781 146.953125 7.65625 C 146.023438 8.488281 145.628906 9.324219 145.757812 10.214844 C 146.222656 13.566406 153.585938 17.144531 157.125 18.859375 C 157.773438 19.175781 158.335938 19.449219 158.761719 19.671875 L 159.050781 19.820312 C 167.921875 24.453125 173.480469 26.070312 175.574219 24.632812 C 176.300781 24.132812 176.578125 23.199219 176.410156 21.777344 C 175.71875 15.824219 169.378906 10.394531 163.679688 7.300781 C 160.480469 5.5625 158.9375 5.101562 156.1875 4.289062 Z M 221.441406 35.152344 C 221.140625 35.152344 220.871094 35.179688 220.632812 35.222656 C 219.960938 35.347656 219.101562 35.699219 218.820312 36.660156 C 218.457031 37.886719 219.058594 40.136719 221.835938 42.773438 C 224.152344 44.972656 226.738281 47.097656 229.238281 49.15625 C 237.234375 55.730469 245.5 62.527344 246.257812 72.730469 C 247.3125 86.972656 252.292969 111.464844 259.632812 118.796875 C 262.636719 121.800781 265.480469 123.375 268.097656 123.496094 C 267.160156 98.066406 258.453125 70.972656 245.574219 54.296875 C 233.839844 39.113281 225.265625 35.152344 221.441406 35.152344 Z M 137.410156 261.058594 C 104.285156 261.058594 74.171875 248.835938 45.59375 223.84375 C 23.664062 204.664062 0.171875 164.558594 6.128906 114.632812 C 9.386719 87.347656 22.0625 59.46875 40.902344 38.152344 C 56.496094 20.511719 76.480469 9.640625 105.703125 2.910156 C 112.761719 1.285156 126.414062 0.0273438 137.457031 -0.0117188 C 137.5 -0.0117188 137.542969 -0.0117188 137.585938 -0.0117188 C 142.640625 -0.0117188 149.976562 1.03125 154.363281 2.378906 C 155.113281 2.605469 155.773438 2.800781 156.378906 2.980469 C 161.316406 2.507812 166.613281 3.101562 170.3125 4 C 170.417969 4.027344 180.648438 6.605469 187.726562 10.414062 C 188.042969 10.585938 188.164062 10.984375 187.992188 11.300781 C 187.820312 11.617188 187.421875 11.738281 187.105469 11.566406 C 180.175781 7.835938 170.101562 5.292969 170 5.269531 C 167.253906 4.605469 163.601562 4.101562 159.910156 4.101562 C 159.910156 4.101562 159.910156 4.101562 159.90625 4.101562 C 161.179688 4.574219 162.480469 5.160156 164.304688 6.152344 C 167.210938 7.726562 176.765625 13.507812 177.710938 21.625 C 177.933594 23.546875 177.464844 24.921875 176.316406 25.710938 C 172.90625 28.054688 164.484375 24.132812 158.445312 20.980469 L 158.160156 20.832031 C 157.738281 20.613281 157.191406 20.347656 156.554688 20.035156 C 152.242188 17.941406 145.027344 14.4375 144.460938 10.398438 C 144.273438 9.058594 144.816406 7.808594 146.078125 6.683594 C 147.917969 5.039062 150.472656 4.007812 153.3125 3.429688 C 148.945312 2.203125 142.175781 1.300781 137.460938 1.292969 C 126.5 1.335938 112.976562 2.578125 106 4.183594 C 77.058594 10.851562 57.28125 21.59375 41.882812 39.019531 C 23.210938 60.140625 10.652344 87.757812 7.429688 114.789062 C 1.53125 164.207031 24.765625 203.890625 46.457031 222.859375 C 77.171875 249.722656 109.660156 261.707031 145.777344 259.496094 C 190.628906 256.75 241.167969 222.128906 256.140625 183.894531 C 259.9375 174.1875 264.148438 162.683594 266.554688 150.929688 C 267.898438 144.367188 268.011719 138.144531 268.132812 131.550781 L 268.160156 130.257812 C 268.191406 128.453125 268.183594 126.636719 268.136719 124.804688 C 265.152344 124.703125 261.988281 123 258.707031 119.722656 C 251.136719 112.152344 246.023438 87.265625 244.953125 72.828125 C 244.238281 63.179688 236.550781 56.859375 228.410156 50.164062 C 225.890625 48.09375 223.285156 45.949219 220.933594 43.71875 C 218.210938 41.136719 216.953125 38.359375 217.5625 36.289062 C 217.933594 35.046875 218.9375 34.210938 220.390625 33.9375 C 224.871094 33.105469 234.417969 37.71875 246.609375 53.5 C 259.640625 70.367188 268.449219 97.746094 269.402344 123.433594 C 271.839844 123.078125 274.078125 121.390625 276.066406 118.414062 C 276.265625 118.113281 276.671875 118.03125 276.972656 118.230469 C 277.273438 118.429688 277.351562 118.835938 277.152344 119.136719 C 274.914062 122.496094 272.320312 124.378906 269.441406 124.746094 C 269.492188 126.601562 269.5 128.449219 269.464844 130.285156 L 269.441406 131.574219 C 269.320312 138.226562 269.203125 144.511719 267.835938 151.191406 C 265.410156 163.039062 261.175781 174.613281 257.355469 184.375 C 250.285156 202.4375 234.503906 221.03125 214.058594 235.382812 C 192.683594 250.390625 168.464844 259.417969 145.855469 260.800781 C 143.019531 260.972656 140.203125 261.058594 137.410156 261.058594 " fill-opacity="1" fill-rule="nonzero"/></g></svg>