<svg xmlns="http://www.w3.org/2000/svg" xmlns:xlink="http://www.w3.org/1999/xlink" width="475" zoomAndPan="magnify" viewBox="0 0 356.25 78.749999" height="105" preserveAspectRatio="xMidYMid meet" version="1.0"><defs><clipPath id="7f1a32dbf1"><path d="M 6.761719 7 L 182 7 L 182 78.207031 L 6.761719 78.207031 Z M 6.761719 7 " clip-rule="nonzero"/></clipPath><clipPath id="531617591c"><path d="M 179 2.695312 L 348.425781 2.695312 L 348.425781 65 L 179 65 Z M 179 2.695312 " clip-rule="nonzero"/></clipPath></defs><g clip-path="url(#7f1a32dbf1)"><path fill="#000000" d="M 174.976562 41.410156 C 174.578125 41.234375 174.148438 41.113281 173.734375 41 C 173.511719 40.9375 173.28125 40.875 173.0625 40.800781 C 172.675781 40.675781 172.277344 40.558594 171.890625 40.445312 C 170.890625 40.148438 169.851562 39.839844 168.769531 39.332031 C 169.414062 39.152344 169.878906 39.238281 170.332031 39.324219 L 170.453125 39.347656 C 171.804688 39.59375 173.230469 39.566406 174.804688 39.257812 C 177.101562 38.808594 178.910156 37.933594 180.328125 36.582031 C 181.175781 35.777344 181.53125 35.09375 181.417969 34.496094 C 181.304688 33.910156 180.746094 33.425781 179.707031 33.007812 C 178.929688 32.695312 178.039062 32.417969 176.988281 32.15625 C 175.65625 31.828125 174.320312 31.496094 172.988281 31.167969 C 166.792969 29.632812 160.386719 28.046875 154.066406 26.546875 L 153.601562 26.4375 C 151.179688 25.859375 148.675781 25.261719 146.113281 25.488281 C 143.953125 25.679688 141.441406 25.914062 138.960938 26.292969 C 132.816406 27.234375 126.4375 27.738281 119.460938 27.839844 C 108.058594 28.007812 96.523438 27.519531 85.179688 26.386719 C 79.902344 25.863281 74.304688 25.179688 68.992188 23.183594 C 67.949219 22.792969 66.851562 22.503906 65.789062 22.226562 C 65.570312 22.171875 65.351562 22.113281 65.132812 22.054688 C 58.828125 20.382812 52.308594 19.226562 46.003906 18.109375 L 45.957031 18.097656 C 34.859375 16.132812 24.246094 12.160156 14.425781 8.160156 C 14.027344 7.996094 13.636719 7.792969 13.261719 7.597656 C 13.054688 7.488281 12.839844 7.378906 12.628906 7.273438 C 12.582031 7.25 12.53125 7.21875 12.480469 7.183594 C 12.265625 7.042969 12 6.867188 11.625 7.292969 L 11.589844 7.335938 L 11.628906 7.371094 C 12.59375 8.261719 13.785156 8.742188 14.933594 9.207031 C 15.097656 9.273438 15.257812 9.339844 15.421875 9.40625 C 27.894531 14.558594 38.675781 17.78125 49.351562 19.546875 C 55.722656 20.601562 64.089844 22.179688 72.269531 25.015625 C 73.953125 25.601562 75.652344 26.003906 77.324219 26.21875 C 87.605469 27.539062 96.71875 28.296875 105.183594 28.53125 C 116.21875 28.835938 129.273438 28.851562 142.4375 26.65625 C 145.996094 26.066406 149.460938 26.210938 153.03125 27.105469 C 158.308594 28.425781 163.683594 29.730469 168.882812 30.992188 C 171.675781 31.667969 174.464844 32.34375 177.253906 33.027344 C 178 33.207031 178.695312 33.429688 179.320312 33.675781 C 180.136719 34.003906 180.53125 34.304688 180.597656 34.652344 C 180.664062 35.011719 180.390625 35.453125 179.714844 36.082031 C 178.417969 37.289062 176.769531 38.078125 174.671875 38.488281 C 172.1875 38.980469 169.578125 38.714844 166.472656 37.660156 C 164.105469 36.855469 161.859375 35.78125 159.578125 34.65625 C 157.578125 33.675781 155.863281 33.105469 154.183594 32.859375 C 152.953125 32.679688 151.8125 32.363281 150.449219 31.972656 C 146.210938 30.753906 142.4375 30.128906 138.910156 30.066406 C 138.179688 30.054688 137.347656 30.039062 136.578125 30.359375 C 136.214844 30.511719 135.796875 30.683594 135.757812 31.175781 C 135.714844 31.691406 136.136719 31.949219 136.457031 32.101562 C 136.921875 32.316406 137.351562 32.453125 137.746094 32.507812 C 138.757812 32.652344 139.835938 32.792969 140.910156 32.84375 C 143.671875 32.96875 146.648438 33.074219 150.28125 33.183594 C 151.511719 33.222656 152.675781 33.460938 153.847656 33.917969 C 156.128906 34.800781 158.441406 35.796875 160.917969 36.957031 C 165.605469 39.152344 169.632812 40.683594 173.585938 41.765625 L 173.699219 41.796875 C 174.03125 41.890625 174.375 41.984375 174.679688 42.136719 C 174.984375 42.292969 175.160156 42.472656 175.199219 42.671875 C 175.238281 42.875 175.136719 43.113281 174.898438 43.378906 C 174.382812 43.957031 173.703125 44.253906 172.925781 44.550781 C 170.457031 45.503906 167.765625 45.738281 164.207031 45.308594 C 161.933594 45.035156 159.738281 44.300781 157.617188 43.589844 C 157.34375 43.5 157.070312 43.40625 156.792969 43.316406 C 152.832031 42.003906 148.824219 41.515625 144.890625 41.859375 C 141.964844 42.113281 139.148438 42.824219 136.035156 43.65625 C 132.835938 44.507812 129.65625 45.605469 126.582031 46.667969 C 125.351562 47.09375 124.078125 47.53125 122.824219 47.949219 C 120.949219 48.570312 118.988281 49.054688 116.824219 49.425781 C 115.75 49.609375 114.90625 49.527344 114.273438 48.519531 C 113.859375 47.867188 113.164062 47.347656 112.261719 47.015625 C 111.398438 46.695312 110.5625 46.925781 110.277344 47.5625 C 109.917969 48.378906 110.425781 48.914062 110.972656 49.328125 C 111.667969 49.855469 112.5 50.144531 113.320312 50.144531 C 113.335938 50.144531 113.359375 50.144531 113.378906 50.144531 C 114.578125 50.144531 115.167969 50.769531 115.730469 51.777344 C 116.566406 53.28125 117.359375 54.902344 118.222656 56.875 C 119.058594 58.777344 120.070312 60.257812 121.316406 61.40625 C 123.390625 63.316406 125.859375 64.875 128.65625 66.039062 C 130.300781 66.722656 132.460938 67.636719 134.632812 68.65625 C 136.886719 69.714844 138.546875 71.316406 139.558594 73.417969 C 140.011719 74.359375 140.019531 75.289062 139.582031 76.035156 C 139.140625 76.789062 138.277344 77.257812 137.210938 77.324219 C 136.355469 77.378906 135.539062 77.128906 134.785156 76.851562 C 132.113281 75.863281 129.507812 74.441406 127.039062 72.617188 C 124.222656 70.539062 120.855469 68.988281 116.746094 67.875 C 112.175781 66.636719 107.449219 65.359375 102.746094 63.882812 C 97.492188 62.238281 93.449219 60.171875 90.03125 57.390625 C 87.941406 55.6875 85.539062 54.398438 82.675781 53.449219 C 79.933594 52.535156 76.929688 52.0625 72.941406 51.90625 C 67.683594 51.703125 62.324219 52.164062 57.714844 52.613281 C 54.605469 52.914062 51.453125 53.296875 48.402344 53.667969 C 44.539062 54.140625 40.539062 54.625 36.589844 54.949219 C 34.335938 55.136719 32.046875 55.339844 29.832031 55.535156 C 23.355469 56.113281 16.664062 56.707031 10.050781 56.917969 C 9.371094 56.941406 8.6875 57.015625 7.964844 57.09375 C 7.613281 57.132812 7.246094 57.171875 6.863281 57.207031 L 6.761719 57.214844 L 6.820312 57.296875 C 7.304688 57.9375 7.785156 57.894531 8.207031 57.855469 C 8.269531 57.847656 8.332031 57.84375 8.390625 57.839844 C 9.414062 57.785156 10.4375 57.722656 11.460938 57.660156 C 13.359375 57.542969 15.320312 57.421875 17.25 57.34375 C 20.800781 57.195312 24.398438 56.855469 27.875 56.527344 C 29.261719 56.398438 30.695312 56.265625 32.105469 56.144531 C 39.832031 55.480469 46.273438 54.898438 52.914062 53.941406 C 57.496094 53.28125 62.152344 52.992188 66.917969 52.734375 C 71.742188 52.472656 75.664062 52.667969 79.257812 53.355469 C 83.234375 54.117188 86.683594 55.671875 89.507812 57.972656 C 93.042969 60.855469 97.242188 62.988281 102.71875 64.691406 C 107.550781 66.191406 111.488281 67.316406 115.109375 68.234375 C 120.074219 69.492188 124.125 71.335938 127.488281 73.867188 C 129.429688 75.324219 131.699219 76.53125 134.429688 77.554688 C 135.171875 77.832031 136.042969 78.109375 136.988281 78.109375 C 137.066406 78.109375 137.144531 78.105469 137.226562 78.101562 C 138.503906 78.035156 139.539062 77.503906 140.144531 76.597656 C 140.738281 75.707031 140.835938 74.566406 140.414062 73.394531 C 140.355469 73.226562 140.292969 73.058594 140.230469 72.886719 L 140.152344 72.683594 C 142.503906 72.675781 143.207031 72.007812 143.394531 69.636719 C 143.433594 69.160156 143.429688 68.675781 143.425781 68.207031 L 143.421875 67.960938 C 143.410156 66.097656 143.242188 64.210938 143.078125 62.390625 C 142.988281 61.429688 142.898438 60.441406 142.835938 59.464844 C 142.628906 56.386719 142.414062 53.203125 140.410156 50.464844 C 141.039062 50.777344 141.34375 51.351562 141.644531 52.007812 C 142.566406 54.039062 143.667969 56.117188 145.011719 58.355469 C 146.855469 61.433594 148.191406 64.355469 149.097656 67.28125 C 149.597656 68.894531 150.503906 70.453125 151.945312 72.1875 C 152.515625 72.867188 153.097656 73.371094 153.726562 73.726562 C 154.449219 74.128906 155.113281 74.222656 155.648438 73.988281 C 156.171875 73.765625 156.550781 73.238281 156.742188 72.46875 C 156.960938 71.59375 156.945312 70.695312 156.703125 69.792969 C 156.324219 68.367188 155.996094 67.28125 155.640625 66.273438 C 154.523438 63.097656 153.140625 58.898438 152.324219 54.570312 C 151.664062 51.078125 150.746094 46.984375 148.925781 43.0625 C 148.863281 42.925781 148.894531 42.800781 149.015625 42.6875 C 149.484375 42.597656 149.957031 42.652344 150.457031 42.710938 C 150.566406 42.722656 150.679688 42.734375 150.789062 42.746094 C 153.09375 42.980469 155.21875 43.628906 157.753906 44.453125 L 157.921875 44.507812 C 159.957031 45.167969 162.0625 45.851562 164.242188 46.097656 C 167.902344 46.507812 170.660156 46.257812 173.1875 45.289062 C 174.003906 44.976562 174.855469 44.609375 175.484375 43.917969 C 175.917969 43.445312 176.09375 42.953125 176 42.496094 C 175.90625 42.046875 175.550781 41.671875 174.976562 41.410156 Z M 146.832031 32.011719 C 146.339844 32.019531 145.839844 32.035156 145.355469 32.050781 C 142.59375 32.140625 139.730469 32.230469 137.003906 31.25 C 140.359375 30.488281 143.648438 31.257812 146.832031 32.011719 Z M 142.398438 70.699219 C 142.160156 71.398438 141.808594 71.820312 141.382812 71.914062 C 141.003906 71.996094 140.570312 71.804688 140.140625 71.351562 C 138.386719 69.515625 136.75 67.660156 136.066406 65.167969 C 135.949219 64.742188 135.828125 64.316406 135.707031 63.890625 C 135.359375 62.679688 135 61.429688 134.761719 60.175781 C 133.929688 55.839844 131.339844 52.597656 129.175781 50.253906 C 128.382812 49.394531 127.347656 48.847656 126.097656 48.625 C 125.863281 48.582031 125.652344 48.5625 125.453125 48.5625 C 124.570312 48.5625 124.023438 48.992188 123.644531 49.941406 C 123.171875 51.121094 123.019531 52.363281 122.90625 53.539062 L 122.832031 54.316406 C 122.753906 55.148438 122.671875 56.011719 122.578125 56.855469 C 122.457031 57.976562 122.015625 58.972656 121.144531 60.074219 C 119.804688 58.5 118.964844 56.65625 118.15625 54.871094 C 117.472656 53.371094 116.769531 51.816406 115.761719 50.410156 C 116.152344 50.335938 116.523438 50.269531 116.878906 50.203125 C 117.648438 50.0625 118.375 49.929688 119.085938 49.777344 C 121.683594 49.222656 124.21875 48.328125 126.667969 47.46875 C 127.628906 47.128906 128.621094 46.777344 129.605469 46.453125 C 129.929688 46.347656 130.257812 46.214844 130.578125 46.089844 C 131.347656 45.785156 132.140625 45.46875 132.914062 45.46875 C 132.917969 45.46875 132.921875 45.46875 132.925781 45.46875 C 133.554688 45.472656 133.972656 45.964844 134.410156 46.484375 C 134.710938 46.839844 135.023438 47.207031 135.414062 47.433594 C 135.730469 47.613281 136.015625 47.863281 136.292969 48.101562 C 136.515625 48.292969 136.746094 48.492188 136.996094 48.660156 C 140.007812 50.691406 141.648438 53.53125 141.871094 57.101562 C 141.957031 58.484375 142.085938 59.882812 142.207031 61.238281 C 142.414062 63.53125 142.628906 65.898438 142.652344 68.242188 L 142.652344 68.269531 C 142.664062 69.074219 142.671875 69.910156 142.398438 70.699219 Z M 122.148438 60.097656 C 123.316406 58.480469 123.457031 56.574219 123.589844 54.730469 L 123.617188 54.332031 C 123.710938 53.113281 123.867188 52.035156 124.097656 51.042969 C 124.300781 50.179688 124.566406 49.699219 124.957031 49.484375 C 125.359375 49.265625 125.933594 49.308594 126.824219 49.621094 C 127.792969 49.960938 128.5 50.648438 129.058594 51.273438 C 131.8125 54.335938 133.472656 57.464844 134.125 60.847656 C 134.640625 63.507812 135.324219 66.308594 136.804688 68.832031 C 135.027344 67.847656 133.148438 67.074219 131.332031 66.320312 C 130.183594 65.847656 129 65.355469 127.859375 64.820312 C 125.765625 63.839844 124.023438 62.726562 122.539062 61.417969 C 122.042969 60.984375 121.75 60.65625 122.148438 60.097656 Z M 146.011719 42.5625 C 147.859375 42.433594 147.859375 42.433594 148.621094 44.257812 C 148.683594 44.40625 148.75 44.566406 148.820312 44.738281 C 149.859375 47.195312 150.632812 49.824219 151.117188 52.550781 C 151.90625 56.992188 153.128906 61.519531 154.855469 66.394531 C 155.222656 67.433594 155.574219 68.578125 155.933594 69.894531 C 156.167969 70.753906 156.175781 71.578125 155.964844 72.34375 C 155.835938 72.804688 155.625 73.109375 155.34375 73.238281 C 155.0625 73.367188 154.699219 73.332031 154.265625 73.128906 C 153.496094 72.773438 152.925781 72.148438 152.511719 71.644531 C 151.574219 70.5 150.425781 68.945312 149.851562 67.066406 C 148.929688 64.039062 147.554688 61.058594 145.523438 57.683594 C 144.203125 55.488281 143.214844 53.617188 142.417969 51.785156 C 141.847656 50.480469 141.054688 49.589844 139.992188 49.0625 C 138.839844 48.488281 137.875 47.683594 136.851562 46.835938 C 136.117188 46.230469 135.363281 45.601562 134.507812 45.039062 C 135.289062 44.617188 136.011719 44.449219 136.710938 44.28125 C 136.851562 44.25 136.992188 44.214844 137.132812 44.179688 L 137.804688 44.011719 C 140.246094 43.394531 142.765625 42.757812 145.320312 42.605469 C 145.578125 42.59375 145.808594 42.574219 146.011719 42.5625 Z M 113.90625 49.425781 C 112.808594 49.324219 111.980469 49.136719 111.273438 48.558594 C 111.066406 48.386719 110.894531 48.195312 111.046875 47.925781 C 111.199219 47.652344 111.484375 47.617188 111.695312 47.675781 C 112.617188 47.925781 113.300781 48.46875 113.90625 49.425781 Z M 113.90625 49.425781 " fill-opacity="1" fill-rule="nonzero"/></g><g clip-path="url(#531617591c)"><path fill="#000000" d="M 348.390625 43.847656 C 348.324219 43.671875 348.210938 43.535156 348.082031 43.484375 C 347.996094 43.449219 347.90625 43.453125 347.820312 43.492188 C 347.203125 43.777344 346.582031 43.738281 345.925781 43.699219 L 345.882812 43.699219 C 344.511719 43.613281 343.113281 43.523438 341.761719 43.4375 C 338.511719 43.226562 335.152344 43.007812 331.84375 42.886719 C 322.492188 42.550781 313.949219 42.707031 305.726562 43.371094 C 301.878906 43.679688 297.980469 44.113281 294.210938 44.53125 C 290.675781 44.925781 287.019531 45.332031 283.410156 45.636719 C 279.152344 45.996094 274.324219 46.402344 269.539062 46.082031 C 268.335938 46.003906 266.773438 45.824219 265.339844 45.140625 C 264.023438 44.511719 263.972656 44.378906 264.566406 43.101562 C 265.144531 41.859375 265.328125 40.855469 265.152344 39.835938 C 265.050781 39.253906 264.703125 38.859375 264.171875 38.730469 C 263.53125 38.570312 263.195312 38.988281 262.925781 39.46875 C 262.175781 40.8125 262.035156 42.105469 262.523438 43.210938 C 262.980469 44.238281 262.644531 44.800781 261.914062 45.429688 C 259.148438 47.804688 256.285156 50.265625 252.816406 51.890625 C 248.550781 53.886719 243.554688 56.390625 238.855469 59.796875 C 236.878906 61.226562 234.554688 62.285156 231.75 63.03125 C 229.007812 63.757812 226.089844 63.753906 222.574219 63.011719 C 224.480469 62.078125 224.8125 61.246094 224.144531 59.25 C 223.972656 58.738281 223.75 58.238281 223.535156 57.753906 L 223.445312 57.546875 C 221.96875 54.21875 220.304688 50.328125 219.21875 46.3125 C 218.945312 45.316406 218.535156 44.328125 217.988281 43.378906 C 217.378906 42.316406 216.796875 41.59375 216.101562 41.03125 C 215.027344 40.160156 213.980469 40.242188 213.078125 41.269531 C 212.230469 42.234375 211.785156 43.4375 211.757812 44.839844 C 211.734375 45.96875 211.804688 47.121094 211.871094 48.234375 L 211.886719 48.511719 C 212.011719 50.605469 212.410156 52.667969 212.828125 54.589844 C 212.253906 54.007812 211.683594 53.449219 211.128906 52.90625 C 209.40625 51.214844 207.78125 49.613281 206.421875 47.785156 C 205.539062 46.601562 204.34375 45.066406 202.914062 43.738281 C 201.925781 42.820312 200.972656 42.394531 199.914062 42.394531 C 199.910156 42.394531 199.902344 42.394531 199.894531 42.394531 C 199.089844 42.398438 198.433594 42.632812 198 43.082031 C 197.570312 43.523438 197.363281 44.148438 197.386719 44.941406 C 197.394531 45.15625 197.441406 45.375 197.488281 45.582031 C 197.511719 45.695312 197.539062 45.816406 197.558594 45.929688 C 198.082031 49.15625 199.644531 52.074219 202.621094 55.398438 C 202.746094 55.535156 202.871094 55.671875 202.996094 55.808594 C 203.445312 56.289062 203.910156 56.789062 204.253906 57.390625 C 203.582031 57.691406 203.019531 57.570312 202.453125 57.410156 C 200.152344 56.746094 197.835938 55.992188 195.597656 55.257812 C 192.625 54.285156 189.550781 53.28125 186.464844 52.488281 C 184.640625 52.019531 182.976562 51.023438 181.515625 49.523438 C 180.507812 48.488281 180.472656 47.644531 181.394531 46.503906 C 181.910156 45.871094 182.597656 45.566406 183.570312 45.550781 C 185.476562 45.519531 187.742188 45.578125 190.03125 46.191406 C 191.109375 46.480469 192.230469 46.6875 193.3125 46.886719 L 193.46875 46.917969 C 194.394531 47.089844 195.199219 46.878906 195.863281 46.292969 C 196.035156 46.140625 196.230469 45.964844 196.164062 45.6875 C 196.085938 45.363281 195.789062 45.351562 195.570312 45.371094 C 193.683594 45.554688 191.839844 45.167969 190.054688 44.796875 C 189.425781 44.667969 188.78125 44.535156 188.140625 44.425781 C 185.386719 43.960938 183.089844 42.871094 181.3125 41.183594 C 180.785156 40.683594 180.21875 39.984375 180.519531 39.019531 C 180.777344 38.1875 181.445312 37.996094 182.296875 37.832031 C 185.609375 37.1875 189.152344 37.058594 193.121094 37.429688 C 195.03125 37.609375 197.082031 37.707031 199.132812 37.230469 C 201.132812 36.765625 203.074219 36.019531 205.0625 34.953125 L 205.285156 34.835938 C 209.074219 32.808594 212.992188 30.710938 217.28125 29.605469 C 219.726562 28.976562 221.808594 27.519531 223.644531 25.15625 C 225.097656 23.285156 226.402344 21.246094 227.515625 19.101562 C 228.300781 17.585938 229.144531 16.730469 230.910156 17.121094 C 231.800781 17.320312 232.808594 17.082031 233.824219 16.4375 C 234.191406 16.207031 234.667969 15.824219 234.59375 15.171875 C 234.527344 14.574219 234.148438 14.183594 233.460938 14.007812 L 233.382812 13.984375 C 233.078125 13.90625 232.757812 13.824219 232.457031 13.859375 C 231.316406 13.996094 230.160156 14.25 229.410156 15.164062 C 228.714844 16.019531 228.015625 16.054688 226.976562 15.816406 C 224.980469 15.367188 222.941406 14.945312 220.96875 14.535156 C 219.074219 14.144531 217.113281 13.738281 215.191406 13.304688 C 214.765625 13.210938 214.34375 13.117188 213.917969 13.023438 C 210.644531 12.292969 207.257812 11.539062 204.027344 10.40625 C 202.753906 9.960938 201.296875 9.355469 200.144531 8.230469 C 199.578125 7.675781 199.25 7.175781 199.484375 6.527344 C 199.695312 5.945312 200.242188 5.898438 200.769531 5.855469 C 200.847656 5.847656 200.925781 5.839844 201 5.832031 C 201.46875 5.78125 201.945312 5.738281 202.410156 5.695312 C 204.210938 5.53125 206.078125 5.359375 207.773438 4.742188 C 210.746094 3.667969 213.808594 3.683594 217.707031 4.800781 C 221.179688 5.796875 224.828125 6.003906 228.359375 6.203125 C 229.445312 6.261719 230.566406 6.328125 231.664062 6.410156 C 235.867188 6.738281 239.425781 7.6875 242.546875 9.3125 C 243.4375 9.78125 244.347656 10.242188 245.226562 10.6875 C 246.597656 11.382812 248.015625 12.097656 249.386719 12.84375 C 255.070312 15.933594 261.515625 17.65625 270.28125 18.421875 C 275.460938 18.871094 280.984375 18.65625 287.671875 17.742188 C 296.933594 16.472656 306.402344 14.453125 316.628906 11.5625 C 318.78125 10.953125 320.929688 10.34375 323.082031 9.730469 C 324.578125 9.304688 326.074219 8.878906 327.570312 8.453125 C 327.640625 8.433594 327.714844 8.425781 327.792969 8.417969 C 328.042969 8.390625 328.324219 8.359375 328.378906 7.9375 L 328.382812 7.90625 L 328.359375 7.886719 C 327.945312 7.554688 327.5 7.675781 327.105469 7.78125 C 327.035156 7.800781 326.96875 7.820312 326.898438 7.835938 C 326.089844 8.027344 325.277344 8.269531 324.492188 8.503906 L 324.320312 8.554688 C 312.945312 11.9375 299.417969 15.609375 285.335938 17.207031 C 277.554688 18.09375 271.140625 18.035156 265.15625 17.023438 C 258.539062 15.90625 253.699219 14.363281 249.46875 12.019531 C 247.71875 11.050781 245.785156 10.046875 243.375 8.855469 C 240.605469 7.484375 238.078125 6.324219 235.175781 6.015625 C 233.171875 5.804688 230.523438 5.539062 227.84375 5.339844 C 223.285156 5 218.835938 4.585938 214.5 3.222656 C 213.121094 2.792969 211.667969 2.820312 210.179688 3.316406 C 208.433594 3.894531 206.785156 4.277344 205.144531 4.480469 L 204.898438 4.511719 C 203.453125 4.691406 201.960938 4.878906 200.5 5.101562 C 199.585938 5.238281 198.945312 5.644531 198.703125 6.242188 C 198.457031 6.84375 198.625 7.578125 199.179688 8.3125 C 199.488281 8.71875 199.886719 9.058594 200.269531 9.367188 C 201.035156 9.976562 201.953125 10.472656 203.070312 10.882812 C 204.78125 11.511719 206.558594 12.058594 208.351562 12.503906 C 212.902344 13.644531 217.570312 14.621094 222.082031 15.566406 C 223.582031 15.878906 225.132812 16.203125 226.65625 16.53125 C 226.730469 16.546875 226.808594 16.558594 226.882812 16.574219 C 227.222656 16.628906 227.570312 16.691406 227.847656 17.039062 C 227.476562 17.65625 227.105469 18.292969 226.746094 18.90625 C 225.875 20.394531 224.976562 21.929688 224 23.394531 C 221.902344 26.542969 219.175781 28.488281 215.667969 29.339844 C 213.558594 29.851562 211.375 30.726562 208.988281 32.011719 C 207.476562 32.828125 205.875 33.667969 204.097656 34.578125 C 200.429688 36.453125 196.734375 37.125 192.800781 36.636719 C 189.132812 36.179688 185.425781 36.351562 181.785156 37.140625 C 180.78125 37.359375 180.066406 37.898438 179.773438 38.65625 C 179.476562 39.421875 179.644531 40.3125 180.253906 41.160156 C 180.664062 41.734375 181.226562 42.160156 181.769531 42.574219 C 181.84375 42.628906 181.917969 42.683594 181.992188 42.742188 C 182.558594 43.175781 183.160156 43.515625 183.796875 43.878906 C 184.28125 44.15625 184.777344 44.441406 185.261719 44.769531 C 185.121094 44.769531 184.980469 44.765625 184.839844 44.765625 C 184.40625 44.765625 183.953125 44.761719 183.507812 44.773438 C 181.871094 44.8125 180.773438 45.589844 180.148438 47.15625 C 179.5 48.785156 180.570312 49.75 181.429688 50.527344 C 183.175781 52.101562 185.375 53.183594 188.144531 53.832031 C 190.789062 54.453125 193.398438 55.308594 195.828125 56.140625 C 197.226562 56.621094 198.667969 57.0625 200.0625 57.488281 C 200.765625 57.703125 201.496094 57.925781 202.210938 58.148438 C 203.050781 58.414062 203.894531 58.441406 204.722656 58.238281 C 205.066406 58.152344 205.273438 58.015625 205.335938 57.820312 C 205.402344 57.625 205.316406 57.378906 205.078125 57.089844 C 204.109375 55.914062 203.117188 54.730469 202.15625 53.582031 L 201.328125 52.597656 C 199.820312 50.792969 198.871094 48.601562 198.253906 45.492188 C 198.082031 44.613281 198.21875 43.933594 198.652344 43.53125 C 199.089844 43.121094 199.820312 43.03125 200.703125 43.273438 C 201.21875 43.414062 201.691406 43.6875 202.113281 44.089844 L 202.277344 44.246094 C 202.78125 44.722656 203.300781 45.21875 203.75 45.753906 C 204.242188 46.335938 204.734375 46.9375 205.214844 47.515625 C 207.035156 49.726562 208.914062 52.011719 211.105469 53.976562 C 212.5 55.226562 213.277344 56.609375 213.414062 58.085938 C 213.5 59.023438 213.316406 59.691406 212.863281 60.074219 C 212.421875 60.457031 211.710938 60.535156 210.8125 60.308594 C 210.484375 60.226562 210.152344 60.132812 209.828125 60.042969 C 208.988281 59.804688 208.113281 59.558594 207.21875 59.492188 C 207.167969 59.488281 207.121094 59.484375 207.070312 59.476562 C 206.667969 59.4375 206.167969 59.390625 206.050781 59.96875 C 205.933594 60.535156 206.433594 60.777344 206.832031 60.96875 L 206.855469 60.980469 C 207.105469 61.101562 207.371094 61.207031 207.636719 61.292969 C 208.863281 61.695312 210.074219 61.707031 211.359375 61.722656 C 211.648438 61.726562 211.941406 61.730469 212.238281 61.738281 C 214.839844 61.808594 217.546875 62.273438 220.070312 63.082031 C 222.640625 63.902344 225.070312 64.3125 227.40625 64.3125 C 228.957031 64.3125 230.464844 64.132812 231.949219 63.773438 C 234.796875 63.085938 237.527344 61.757812 240.796875 59.476562 C 244.210938 57.089844 247.199219 55.371094 250.195312 54.070312 C 253.851562 52.480469 257.117188 50.492188 259.898438 48.160156 C 261.03125 47.210938 262.3125 46.136719 263.523438 44.953125 C 265.328125 46.324219 267.398438 46.675781 269.191406 46.839844 C 270.402344 46.953125 271.625 46.957031 272.878906 46.960938 C 279.503906 46.957031 286.179688 46.195312 292.632812 45.457031 C 293.664062 45.339844 294.699219 45.222656 295.734375 45.105469 C 303.425781 44.25 309.839844 43.757812 315.921875 43.558594 C 325.867188 43.230469 335.523438 43.785156 346.210938 44.488281 C 346.296875 44.496094 346.386719 44.5 346.472656 44.507812 C 346.996094 44.546875 347.535156 44.589844 348.054688 44.421875 C 348.128906 44.398438 348.3125 44.328125 348.390625 44.167969 C 348.4375 44.070312 348.4375 43.960938 348.390625 43.847656 Z M 263.425781 43.363281 C 262.941406 42.132812 262.988281 41.070312 263.578125 39.929688 C 263.683594 39.726562 263.816406 39.625 263.976562 39.625 C 263.992188 39.625 264.011719 39.625 264.03125 39.628906 C 264.222656 39.65625 264.335938 39.796875 264.371094 40.046875 C 264.535156 41.226562 264.246094 42.253906 263.425781 43.363281 Z M 213.109375 52 C 212.761719 49.960938 212.5625 47.84375 212.5 45.53125 C 212.46875 44.34375 212.726562 43.273438 213.257812 42.351562 C 213.652344 41.671875 214.058594 41.3125 214.5 41.253906 C 214.542969 41.246094 214.585938 41.246094 214.628906 41.246094 C 215.03125 41.246094 215.472656 41.484375 215.96875 41.972656 C 216.992188 42.980469 217.710938 44.164062 218.097656 45.492188 C 219.554688 50.503906 221.546875 55.25 223.300781 59.226562 C 223.324219 59.277344 223.347656 59.328125 223.363281 59.378906 C 223.742188 60.460938 223.78125 61.089844 223.496094 61.472656 C 223.195312 61.882812 222.472656 62.042969 221.152344 62 L 221.144531 61.996094 L 221.136719 62 C 219.957031 62.230469 218.859375 61.398438 218.039062 60.652344 C 215.28125 58.132812 213.667969 55.304688 213.109375 52 Z M 213.675781 60.421875 C 214.015625 59.59375 214.371094 58.738281 214.328125 57.753906 C 215.605469 59.351562 216.742188 60.566406 218.078125 61.761719 C 216.277344 61.757812 214.921875 61.429688 213.464844 60.9375 C 213.53125 60.765625 213.605469 60.59375 213.675781 60.421875 Z M 229.570312 16.234375 C 230.121094 15.484375 230.992188 14.667969 232.808594 14.667969 C 232.855469 14.667969 232.902344 14.667969 232.949219 14.667969 C 233.308594 14.675781 233.710938 14.835938 233.75 15.253906 C 233.78125 15.578125 233.488281 15.753906 233.183594 15.90625 C 232.167969 16.410156 231.082031 16.511719 229.570312 16.234375 Z M 229.570312 16.234375 " fill-opacity="1" fill-rule="nonzero"/></g></svg>