<svg xmlns="http://www.w3.org/2000/svg" xmlns:xlink="http://www.w3.org/1999/xlink" width="520" zoomAndPan="magnify" viewBox="0 0 390 239.999995" height="320" preserveAspectRatio="xMidYMid meet" version="1.0"><defs><clipPath id="93cd607eaa"><path d="M 0 0 L 388.5 0 L 388.5 239.25 L 0 239.25 Z M 0 0 " clip-rule="nonzero"/></clipPath></defs><g clip-path="url(#93cd607eaa)"><path fill="#000000" d="M 0.0585938 202.148438 C 52.667969 202.15625 105.277344 202.167969 151.390625 202.167969 C 197.503906 202.171875 237.121094 202.164062 263.75 202.136719 C 275.710938 202.125 285.046875 202.109375 292.363281 202.082031 C 291.222656 201.773438 290.136719 201.414062 289.078125 201.011719 C 287.757812 200.511719 286.464844 199.933594 285.148438 199.300781 L 285.144531 199.300781 C 283.886719 198.695312 282.597656 198.03125 281.390625 197.375 C 280.132812 196.6875 278.984375 196.019531 278.070312 195.441406 C 276.855469 194.675781 276.023438 194.054688 275.648438 193.710938 C 275.539062 193.609375 275.445312 193.511719 275.375 193.425781 C 275.113281 193.089844 275.03125 192.78125 275.132812 192.503906 C 273.53125 191.5625 272.089844 190.636719 270.757812 189.660156 C 269.1875 188.511719 267.761719 187.292969 266.386719 185.894531 C 265.050781 184.53125 263.769531 183.003906 262.695312 181.535156 C 261.554688 179.984375 260.632812 178.484375 260.097656 177.300781 C 259.757812 176.550781 259.566406 175.925781 259.460938 175.375 C 259.070312 175.171875 258.699219 174.851562 258.347656 174.441406 C 257.878906 173.894531 257.421875 173.15625 256.964844 172.207031 C 256.53125 171.304688 256.09375 170.195312 255.648438 168.859375 C 255.160156 167.398438 254.660156 165.664062 254.257812 163.746094 C 253.921875 162.164062 253.652344 160.457031 253.5 158.671875 C 253.320312 156.605469 253.300781 154.421875 253.46875 152.1875 C 253.628906 150.109375 253.953125 147.988281 254.476562 145.875 C 255.019531 143.695312 255.765625 141.539062 256.605469 139.449219 C 257.445312 137.371094 258.367188 135.371094 259.257812 133.484375 C 259.378906 133.234375 259.761719 132.4375 260.144531 131.640625 C 261.578125 128.648438 262.910156 125.875 263.96875 122.855469 C 264.59375 121.070312 265.128906 119.195312 265.570312 117.253906 C 266.019531 115.277344 266.378906 113.21875 266.644531 111.097656 C 267.066406 107.714844 267.25 104.238281 267.5 99.402344 C 267.566406 98.15625 267.636719 96.828125 267.710938 95.503906 C 267.90625 91.957031 268.15625 87.777344 268.457031 83.636719 C 268.761719 79.457031 269.117188 75.265625 269.519531 71.703125 C 269.863281 68.65625 270.238281 66.082031 270.601562 63.953125 C 271.097656 61.070312 271.582031 58.96875 271.941406 57.597656 C 272.324219 56.148438 272.609375 55.371094 273.765625 54.828125 C 274.550781 54.460938 275.691406 54.3125 277.644531 54.175781 C 277.925781 53.121094 278.320312 51.742188 278.726562 50.425781 C 278.847656 50.035156 278.96875 49.652344 279.089844 49.285156 C 278.488281 49.28125 278.019531 49.261719 277.644531 49.222656 C 276.695312 49.125 276.269531 48.933594 275.84375 48.675781 C 275.378906 48.398438 274.921875 48.050781 274.628906 47.3125 C 274.378906 46.691406 274.28125 45.808594 274.472656 44.457031 C 274.660156 43.152344 275.125 41.335938 275.90625 39.097656 C 276.582031 37.167969 277.496094 34.914062 278.679688 32.390625 C 280.042969 29.480469 281.761719 26.222656 283.691406 23.058594 C 285.359375 20.328125 287.1875 17.660156 289.089844 15.339844 C 291.171875 12.796875 293.355469 10.648438 295.886719 8.824219 C 298.414062 7.003906 301.265625 5.519531 304.691406 4.304688 C 307.910156 3.160156 311.632812 2.257812 315.476562 1.582031 C 319.714844 0.839844 324.121094 0.375 328.164062 0.183594 C 332.027344 0 335.550781 0.0664062 338.757812 0.445312 C 342 0.828125 344.929688 1.53125 347.570312 2.621094 C 350.207031 3.714844 352.535156 5.1875 354.617188 6.8125 C 356.683594 8.421875 358.492188 10.167969 360.128906 11.824219 C 361.769531 13.492188 363.230469 15.070312 364.621094 16.855469 C 366.015625 18.652344 367.34375 20.664062 368.714844 23.195312 C 370.085938 25.71875 371.488281 28.757812 372.925781 32.316406 C 374.335938 35.796875 375.765625 39.765625 377.214844 44.222656 C 378.777344 49.03125 380.355469 54.398438 381.785156 59.996094 C 383.03125 64.890625 384.167969 69.996094 385.082031 75.09375 C 385.976562 80.085938 386.644531 85.023438 387.140625 89.746094 C 387.722656 95.320312 388.0625 100.613281 388.242188 105.355469 C 388.40625 109.621094 388.445312 113.4375 388.371094 116.621094 C 388.289062 119.988281 388.09375 122.648438 387.796875 124.382812 C 387.113281 128.386719 385.984375 128.347656 383.339844 128.25 L 383.113281 128.242188 L 383.011719 128.238281 C 383 128.410156 382.984375 128.589844 382.972656 128.777344 C 382.941406 129.207031 382.90625 129.679688 382.878906 130.105469 C 382.679688 133.34375 382.574219 138.625 382.5 142.402344 C 382.488281 143.007812 382.480469 143.578125 382.464844 144.089844 C 382.449219 144.871094 382.4375 145.53125 382.40625 146.101562 C 382.695312 146.148438 382.964844 146.203125 383.222656 146.269531 C 384.058594 146.476562 384.800781 146.773438 385.402344 147.199219 C 386.0625 147.671875 386.546875 148.285156 386.808594 149.085938 C 387.046875 149.824219 387.074219 150.675781 386.941406 151.882812 C 386.816406 152.980469 386.550781 154.40625 386.179688 156.371094 C 385.789062 158.417969 385.304688 160.957031 384.84375 163.277344 C 384.355469 165.722656 383.835938 168.214844 383.363281 170.292969 C 383.136719 171.277344 382.921875 172.164062 382.726562 172.960938 C 382.164062 175.273438 381.792969 176.796875 381.785156 178.421875 C 381.773438 180.0625 382.132812 181.933594 382.570312 184.25 C 382.730469 185.085938 382.902344 185.972656 383.039062 186.738281 C 383.34375 188.476562 383.65625 190.492188 383.9375 192.539062 C 384.222656 194.597656 384.472656 196.664062 384.65625 198.496094 C 384.839844 200.300781 384.957031 201.875 384.992188 203.335938 C 385.027344 204.816406 384.980469 206.160156 384.835938 207.496094 C 384.6875 208.863281 384.4375 210.226562 383.90625 211.726562 C 383.378906 213.210938 382.582031 214.824219 381.335938 216.699219 C 380.039062 218.648438 378.25 220.894531 376.132812 223.121094 C 374.253906 225.101562 372.117188 227.078125 369.828125 228.832031 C 367.535156 230.589844 365.097656 232.125 362.664062 233.429688 C 359.945312 234.886719 357.226562 236.058594 354.71875 236.933594 C 352.324219 237.765625 350.128906 238.324219 348.09375 238.683594 C 346.0625 239.039062 344.164062 239.199219 342.378906 239.226562 C 340.597656 239.25 338.941406 239.144531 337.289062 238.886719 C 335.628906 238.625 333.992188 238.214844 332.269531 237.632812 C 330.53125 237.042969 328.699219 236.277344 326.789062 235.335938 C 324.957031 234.429688 323.050781 233.347656 321.082031 232.09375 C 319.089844 230.820312 317.039062 229.371094 315.085938 227.71875 C 313.121094 226.050781 311.234375 224.167969 309.578125 222.035156 C 308.109375 220.148438 306.832031 218.078125 305.769531 216.082031 C 304.433594 213.570312 303.425781 211.136719 302.804688 209.296875 C 302.214844 207.542969 301.96875 206.265625 302.136719 205.335938 C 302.257812 204.675781 302.539062 204.195312 302.992188 203.867188 C 294.8125 203.933594 282.503906 203.960938 263.75 203.980469 C 237.121094 204.007812 197.503906 204.015625 151.390625 204.015625 C 105.277344 204.015625 52.667969 204.003906 0.0585938 203.992188 Z M 311.226562 201.917969 L 311.25 201.917969 C 318.34375 201.777344 319.164062 201.550781 320.183594 201.160156 C 321.363281 200.710938 322.8125 200.042969 324.433594 199.132812 C 325.773438 198.378906 327.222656 197.460938 328.722656 196.355469 C 330.375 195.136719 332.089844 193.691406 333.742188 191.949219 C 335.394531 190.214844 336.980469 188.183594 338.386719 185.796875 C 339.707031 183.554688 340.878906 180.96875 341.855469 178.328125 L 341.859375 178.328125 C 342.964844 175.351562 343.824219 172.316406 344.390625 169.621094 C 344.921875 167.09375 345.191406 164.875 345.265625 162.65625 C 345.339844 160.425781 345.210938 158.175781 344.941406 155.597656 C 343.773438 144.320312 341.164062 133.867188 335.871094 125.433594 C 330.613281 117.050781 322.679688 110.628906 310.824219 107.332031 C 308.800781 106.769531 306.992188 106.371094 305.472656 106.125 C 303.855469 105.863281 302.585938 105.777344 301.761719 105.84375 C 301.339844 105.878906 301.148438 105.925781 301.121094 106.003906 C 301.019531 106.328125 301.125 107.015625 301.328125 108.101562 C 301.589844 109.496094 302.015625 111.449219 302.589844 113.496094 C 303.011719 115 303.511719 116.546875 304.085938 117.933594 C 304.757812 119.5625 305.535156 121 306.40625 122.316406 C 307.277344 123.632812 308.246094 124.835938 309.292969 125.988281 C 310.335938 127.136719 311.449219 128.230469 312.570312 129.332031 C 313.78125 130.523438 315 131.722656 316.144531 132.988281 C 317.285156 134.261719 318.371094 135.617188 319.371094 137.046875 C 320.328125 138.421875 321.199219 139.851562 321.953125 141.320312 C 322.722656 142.824219 323.375 144.359375 323.914062 145.945312 C 324.453125 147.539062 324.886719 149.1875 325.222656 150.90625 C 325.5625 152.644531 325.808594 154.464844 325.933594 156.285156 C 326.0625 158.050781 326.078125 159.816406 325.972656 161.511719 C 325.867188 163.230469 325.632812 164.875 325.257812 166.5625 C 324.882812 168.238281 324.371094 169.941406 323.699219 171.785156 C 323.035156 173.625 322.207031 175.617188 321.152344 177.621094 C 320.09375 179.632812 318.816406 181.652344 317.25 183.53125 C 315.800781 185.265625 314.117188 186.871094 312.367188 188.304688 C 310.328125 189.972656 308.203125 191.410156 306.261719 192.542969 C 304.4375 193.601562 302.773438 194.394531 301.203125 194.992188 C 299.625 195.597656 298.140625 196.003906 296.6875 196.285156 C 295.246094 196.5625 293.835938 196.714844 292.398438 196.765625 C 291.046875 196.8125 289.695312 196.769531 288.300781 196.65625 C 289.007812 196.894531 289.726562 197.125 290.457031 197.335938 C 294.894531 198.636719 299.859375 199.433594 303.503906 200.019531 C 304.308594 200.148438 305.058594 200.265625 305.496094 200.339844 C 307.390625 200.65625 308.671875 200.921875 309.382812 201.136719 C 310.277344 201.40625 310.890625 201.667969 311.226562 201.917969 Z M 311.289062 203.761719 C 310.699219 203.773438 310.070312 203.785156 309.398438 203.796875 C 310.710938 203.976562 312.121094 204.140625 313.480469 204.140625 C 315.328125 204.140625 317.117188 203.832031 318.925781 203.519531 C 320.332031 203.277344 321.75 203.035156 323.242188 202.921875 C 324.230469 202.84375 325.292969 202.828125 326.375 202.816406 C 328.796875 202.78125 331.34375 202.746094 333.9375 201.914062 C 335.695312 201.347656 337.507812 200.40625 339.257812 199.242188 C 341.199219 197.953125 343.046875 196.394531 344.648438 194.765625 C 346.152344 193.242188 347.433594 191.660156 348.480469 190.082031 C 349.5625 188.453125 350.386719 186.835938 350.941406 185.308594 C 351.472656 183.835938 351.75 182.445312 351.746094 181.128906 C 351.742188 179.84375 351.46875 178.625 350.898438 177.460938 C 350.273438 176.1875 349.269531 174.933594 348.335938 173.765625 C 347.4375 172.640625 346.59375 171.589844 346.113281 170.578125 L 346.089844 170.519531 C 345.507812 173.160156 344.660156 176.089844 343.59375 178.96875 L 343.597656 178.972656 C 342.585938 181.683594 341.371094 184.367188 339.976562 186.730469 C 338.496094 189.253906 336.820312 191.394531 335.085938 193.222656 C 333.347656 195.050781 331.546875 196.570312 329.8125 197.847656 C 328.246094 199.003906 326.734375 199.964844 325.339844 200.75 C 323.632812 201.707031 322.09375 202.410156 320.839844 202.890625 C 319.640625 203.351562 318.707031 203.613281 311.289062 203.761719 Z M 346.78125 155.410156 C 346.957031 157.089844 347.070312 158.636719 347.113281 160.136719 C 347.1875 159.976562 347.269531 159.820312 347.359375 159.671875 C 347.824219 158.917969 348.488281 158.460938 349.492188 158.160156 C 350.332031 157.910156 351.425781 157.773438 352.910156 157.640625 C 354.347656 157.507812 356.167969 157.378906 358.085938 157.367188 C 359.011719 157.363281 359.964844 157.386719 360.902344 157.453125 C 360.996094 156.824219 361.058594 156.195312 361.105469 155.597656 C 361.167969 154.800781 361.203125 154.136719 361.234375 153.527344 C 361.265625 152.910156 361.292969 152.339844 361.339844 151.820312 C 361.027344 151.703125 360.777344 151.5625 360.585938 151.402344 L 360.585938 151.40625 C 360.363281 151.222656 360.207031 151.011719 360.109375 150.789062 C 360 150.539062 359.964844 150.289062 359.984375 150.039062 L 359.984375 150.035156 C 360.015625 149.652344 360.1875 149.292969 360.441406 148.984375 C 360.808594 148.546875 361.339844 148.207031 362.226562 147.917969 C 362.550781 147.808594 362.9375 147.707031 363.394531 147.605469 C 363.78125 147.191406 364.191406 146.652344 364.550781 145.789062 C 364.960938 144.804688 365.328125 143.394531 365.632812 141.835938 C 365.992188 139.992188 366.265625 137.949219 366.421875 136.148438 C 366.570312 134.484375 366.617188 133.046875 366.570312 131.859375 C 366.527344 130.691406 366.398438 129.753906 366.1875 129.066406 C 365.980469 128.402344 365.671875 127.949219 365.351562 127.507812 C 364.933594 127.371094 364.605469 127.203125 364.371094 127.015625 C 364.074219 126.78125 363.886719 126.503906 363.808594 126.191406 C 363.714844 125.820312 363.777344 125.460938 363.988281 125.125 C 364 125.109375 364.011719 125.097656 364.019531 125.082031 C 363.824219 124.480469 363.660156 123.734375 363.511719 122.71875 C 363.296875 121.28125 363.113281 119.261719 362.921875 116.273438 C 362.832031 114.867188 362.734375 113.148438 362.625 111.257812 C 362.304688 105.605469 361.902344 98.433594 361.207031 91.742188 C 360.742188 87.3125 360.152344 83.082031 359.363281 78.902344 C 358.578125 74.730469 357.589844 70.601562 356.335938 66.367188 C 355.09375 62.171875 353.589844 57.878906 351.957031 53.769531 C 350.28125 49.558594 348.457031 45.523438 346.625 41.96875 C 344.824219 38.46875 343.023438 35.449219 341.199219 32.8125 C 339.382812 30.1875 337.539062 27.933594 335.664062 25.96875 C 334.023438 24.257812 332.359375 22.761719 330.796875 21.492188 C 328.769531 19.851562 326.917969 18.597656 325.515625 17.746094 C 324.339844 17.035156 323.511719 16.621094 322.828125 16.515625 C 322.242188 16.421875 321.703125 16.578125 321.015625 16.980469 C 320.136719 17.496094 319.078125 18.378906 317.894531 19.804688 C 316.890625 21.011719 315.816406 22.589844 314.710938 24.636719 C 312.691406 28.367188 310.558594 33.636719 308.957031 37.597656 C 308.589844 38.507812 308.25 39.34375 307.902344 40.1875 C 307.070312 42.195312 306.496094 43.445312 306.023438 44.285156 C 305.792969 44.691406 305.582031 45.007812 305.382812 45.265625 C 305.371094 45.382812 305.34375 45.5 305.304688 45.621094 C 305.21875 45.867188 305.066406 46.085938 304.878906 46.269531 C 304.5 46.652344 303.925781 46.972656 302.796875 47.253906 C 302.707031 47.277344 302.613281 47.300781 302.511719 47.324219 C 302.386719 47.40625 302.273438 47.488281 302.175781 47.578125 C 301.953125 47.785156 301.777344 48.050781 301.625 48.390625 C 301.449219 48.78125 301.304688 49.273438 301.144531 49.871094 C 300.976562 50.511719 300.785156 51.328125 300.589844 52.167969 C 300.496094 52.5625 300.402344 52.96875 300.308594 53.371094 C 302.210938 53.417969 303.246094 53.558594 303.773438 53.753906 C 305.515625 54.398438 305.03125 55.203125 304.191406 56.003906 C 303.824219 56.351562 303.332031 56.691406 302.289062 56.972656 C 301.871094 57.089844 301.347656 57.195312 300.683594 57.292969 L 300.730469 57.308594 C 301.421875 57.535156 302.113281 57.761719 302.59375 58.300781 C 303.429688 59.242188 303.1875 60.480469 302.769531 62.621094 C 302.691406 63.007812 302.613281 63.414062 302.578125 63.597656 C 302.328125 64.929688 302.058594 66.589844 301.796875 68.515625 C 301.574219 70.15625 301.363281 71.980469 301.183594 73.933594 C 300.984375 76.085938 300.824219 78.4375 300.699219 80.910156 C 300.574219 83.371094 300.492188 85.917969 300.453125 88.476562 C 300.429688 89.964844 300.421875 91.457031 300.417969 92.886719 C 300.398438 96.507812 300.382812 99.773438 300.136719 101.664062 C 300.003906 102.683594 299.789062 103.375 299.515625 103.78125 C 299.265625 104.160156 298.949219 104.367188 298.574219 104.425781 L 298.574219 104.421875 C 298.183594 104.484375 297.824219 104.367188 297.492188 104.089844 C 297.148438 103.800781 296.824219 103.285156 296.535156 102.597656 C 296.144531 101.664062 295.769531 100.324219 295.539062 98.308594 C 295.316406 96.355469 295.226562 93.730469 295.382812 90.164062 C 295.503906 87.40625 295.765625 84.1875 296.03125 80.914062 C 296.460938 75.644531 296.898438 70.238281 296.777344 66.785156 C 296.660156 63.546875 296.039062 61.988281 295.464844 60.539062 C 295.121094 59.675781 294.792969 58.847656 294.570312 57.765625 C 293.347656 57.816406 292.03125 57.859375 290.695312 57.890625 C 287.382812 57.972656 283.992188 57.996094 281.808594 57.984375 C 279.691406 57.96875 278.597656 57.90625 277.964844 57.503906 C 277.351562 57.113281 277.179688 56.671875 277.226562 56.058594 C 275.839844 56.164062 275.019531 56.28125 274.546875 56.5 C 274.121094 56.699219 273.96875 57.171875 273.730469 58.070312 C 273.382812 59.390625 272.914062 61.429688 272.429688 64.265625 C 272.066406 66.375 271.695312 68.914062 271.355469 71.90625 C 270.960938 75.429688 270.605469 79.601562 270.304688 83.769531 C 270 87.976562 269.746094 92.125 269.554688 95.605469 C 269.476562 97.070312 269.410156 98.324219 269.347656 99.496094 C 269.089844 104.402344 268.90625 107.933594 268.480469 111.324219 C 268.210938 113.476562 267.84375 115.597656 267.375 117.660156 C 266.917969 119.671875 266.363281 121.613281 265.714844 123.460938 C 264.625 126.5625 263.269531 129.390625 261.808594 132.4375 C 261.613281 132.847656 261.40625 133.277344 260.933594 134.273438 C 260.046875 136.140625 259.136719 138.113281 258.324219 140.136719 C 257.511719 142.152344 256.792969 144.230469 256.273438 146.316406 C 255.777344 148.316406 255.46875 150.339844 255.316406 152.324219 C 255.152344 154.453125 255.175781 156.542969 255.34375 158.519531 C 255.492188 160.242188 255.75 161.871094 256.066406 163.371094 C 256.457031 165.230469 256.9375 166.890625 257.398438 168.28125 C 257.820312 169.539062 258.226562 170.574219 258.628906 171.414062 C 258.878906 171.929688 259.125 172.367188 259.367188 172.730469 C 259.367188 172.632812 259.359375 172.539062 259.351562 172.441406 C 259.285156 171.574219 258.941406 170.472656 258.519531 169.128906 C 258.367188 168.640625 258.203125 168.117188 257.996094 167.410156 C 257.664062 166.277344 257.335938 165.011719 257.066406 163.609375 C 256.796875 162.195312 256.582031 160.628906 256.492188 158.886719 C 256.390625 157.027344 256.429688 154.976562 256.6875 152.847656 C 256.910156 151.003906 257.300781 149.085938 257.914062 147.15625 C 258.554688 145.152344 259.425781 143.15625 260.433594 141.296875 C 261.507812 139.316406 262.742188 137.472656 264.007812 135.914062 C 267.730469 131.328125 272.472656 128.75 277.59375 127.808594 C 283.207031 126.777344 289.265625 127.726562 294.90625 130.171875 C 296.765625 130.976562 298.476562 131.917969 300.054688 132.996094 C 301.636719 134.078125 303.09375 135.304688 304.433594 136.675781 C 308.667969 141.011719 311.863281 147.007812 313.488281 153.34375 C 315.054688 159.449219 315.160156 165.882812 313.328125 171.472656 C 312.632812 173.605469 311.652344 175.738281 310.496094 177.714844 C 309.316406 179.734375 307.945312 181.605469 306.5 183.15625 C 305.066406 184.695312 303.5625 185.917969 302.042969 186.910156 C 300.527344 187.898438 299.007812 188.652344 297.523438 189.269531 C 296.042969 189.886719 294.59375 190.371094 293.109375 190.703125 C 291.628906 191.035156 290.121094 191.214844 288.535156 191.222656 C 287.011719 191.226562 285.433594 191.078125 283.875 190.8125 C 282.195312 190.523438 280.523438 190.101562 278.960938 189.59375 C 277.453125 189.101562 276.046875 188.53125 274.699219 187.847656 C 273.355469 187.167969 272.074219 186.375 270.816406 185.449219 C 269.652344 184.589844 268.519531 183.617188 267.476562 182.628906 C 266.292969 181.507812 265.214844 180.355469 264.355469 179.332031 C 263.496094 178.3125 262.84375 177.40625 262.554688 176.398438 C 262.371094 175.753906 262.339844 175.097656 262.496094 174.394531 C 262.4375 174.472656 262.378906 174.550781 262.316406 174.625 C 262.015625 174.992188 261.699219 175.253906 261.375 175.414062 C 261.460938 175.75 261.59375 176.121094 261.785156 176.542969 C 262.269531 177.613281 263.121094 178.992188 264.1875 180.445312 C 265.214844 181.847656 266.433594 183.304688 267.707031 184.597656 C 269.003906 185.921875 270.359375 187.078125 271.851562 188.171875 C 273.363281 189.277344 275.003906 190.308594 276.855469 191.375 C 278.136719 192.109375 279.523438 192.863281 281.011719 193.601562 C 281.875 193.824219 282.835938 194.027344 283.832031 194.207031 C 285.234375 194.457031 286.742188 194.660156 288.210938 194.789062 C 289.652344 194.914062 291.015625 194.96875 292.339844 194.921875 C 293.664062 194.875 294.980469 194.730469 296.339844 194.46875 C 297.683594 194.207031 299.066406 193.828125 300.546875 193.265625 C 302.03125 192.695312 303.609375 191.945312 305.332031 190.941406 C 307.207031 189.855469 309.25 188.476562 311.195312 186.878906 C 312.863281 185.511719 314.464844 183.984375 315.828125 182.351562 C 317.304688 180.582031 318.511719 178.675781 319.515625 176.769531 C 320.519531 174.855469 321.316406 172.9375 321.964844 171.15625 C 322.609375 169.378906 323.101562 167.75 323.457031 166.164062 C 323.808594 164.585938 324.027344 163.035156 324.125 161.402344 C 324.226562 159.792969 324.207031 158.109375 324.089844 156.414062 C 323.964844 154.675781 323.734375 152.929688 323.40625 151.261719 C 323.085938 149.617188 322.671875 148.046875 322.160156 146.539062 C 321.644531 145.023438 321.03125 143.566406 320.308594 142.160156 C 319.589844 140.769531 318.765625 139.410156 317.855469 138.105469 C 316.917969 136.757812 315.878906 135.460938 314.769531 134.226562 C 313.636719 132.972656 312.449219 131.804688 311.273438 130.648438 C 310.121094 129.515625 308.980469 128.394531 307.925781 127.234375 C 306.820312 126.015625 305.792969 124.742188 304.863281 123.335938 C 303.933594 121.925781 303.097656 120.386719 302.375 118.636719 C 301.769531 117.160156 301.246094 115.550781 300.808594 113.996094 C 300.21875 111.898438 299.78125 109.882812 299.511719 108.441406 C 299.253906 107.070312 299.136719 106.152344 299.355469 105.453125 C 299.652344 104.507812 300.324219 104.105469 301.609375 104 C 302.5625 103.921875 303.984375 104.015625 305.765625 104.304688 C 307.351562 104.558594 309.230469 104.972656 311.320312 105.554688 C 323.660156 108.988281 331.941406 115.695312 337.4375 124.457031 C 342.902344 133.167969 345.589844 143.878906 346.78125 155.410156 Z M 287.234375 198.238281 C 288.054688 198.613281 288.882812 198.960938 289.730469 199.28125 C 291.003906 199.765625 292.308594 200.183594 293.691406 200.515625 C 295.011719 200.835938 296.40625 201.082031 297.832031 201.269531 C 299.25 201.457031 300.699219 201.585938 302.128906 201.667969 C 298.570312 201.089844 294.0625 200.316406 289.941406 199.109375 C 289.015625 198.839844 288.113281 198.546875 287.234375 198.238281 Z M 261.199219 172.304688 C 261.21875 172.539062 261.21875 172.761719 261.21875 172.988281 C 261.414062 172.679688 261.625 172.300781 261.855469 171.890625 C 262.488281 170.765625 263.242188 169.414062 264.351562 168.257812 C 265.214844 167.351562 266.273438 166.597656 267.316406 166.039062 C 267.949219 165.699219 268.585938 165.429688 269.179688 165.246094 C 270.054688 163.785156 269.902344 162.757812 269.714844 161.507812 C 269.699219 161.402344 269.679688 161.28125 269.636719 160.976562 C 269.160156 157.515625 269.480469 153.941406 270.730469 150.765625 C 271.875 147.859375 273.796875 145.289062 276.597656 143.445312 C 279.167969 141.75 282.011719 140.960938 284.855469 140.992188 C 287.78125 141.027344 290.699219 141.929688 293.316406 143.621094 C 294.265625 144.234375 295.144531 144.960938 295.949219 145.773438 C 298.925781 148.777344 300.898438 153.011719 301.554688 157.363281 C 302.21875 161.742188 301.554688 166.265625 299.253906 169.824219 C 298.71875 170.648438 298.097656 171.421875 297.382812 172.125 C 296.75 172.75 296.003906 173.359375 295.222656 173.902344 C 294.398438 174.476562 293.539062 174.980469 292.734375 175.371094 C 291.933594 175.757812 291.175781 176.035156 290.429688 176.230469 C 289.675781 176.429688 288.949219 176.546875 288.207031 176.605469 C 287.453125 176.671875 286.671875 176.679688 285.875 176.625 C 285.121094 176.574219 284.355469 176.464844 283.582031 176.289062 C 282.816406 176.117188 282.046875 175.878906 281.285156 175.585938 C 280.5 175.285156 279.734375 174.929688 279.011719 174.535156 C 278.285156 174.140625 277.597656 173.710938 276.960938 173.246094 C 276.324219 172.777344 275.734375 172.273438 275.199219 171.738281 C 274.660156 171.199219 274.160156 170.613281 273.707031 170.015625 L 273.707031 170.011719 C 273.265625 169.433594 272.867188 168.84375 272.519531 168.285156 L 272.515625 168.285156 L 272.394531 168.089844 L 272.394531 168.085938 C 271.941406 167.359375 271.558594 166.742188 270.71875 166.800781 C 270.597656 166.808594 270.46875 166.824219 270.335938 166.851562 C 269.667969 167.785156 268.75 168.816406 267.816406 169.867188 C 266.59375 171.242188 265.335938 172.652344 264.71875 173.761719 C 264.25 174.609375 264.160156 175.277344 264.335938 175.894531 C 264.539062 176.59375 265.066406 177.3125 265.765625 178.144531 C 266.574219 179.105469 267.601562 180.203125 268.75 181.292969 C 269.746094 182.230469 270.820312 183.15625 271.917969 183.964844 C 273.085938 184.828125 274.277344 185.5625 275.535156 186.199219 C 276.789062 186.835938 278.109375 187.371094 279.53125 187.835938 C 281.007812 188.316406 282.59375 188.714844 284.1875 188.988281 C 285.660156 189.242188 287.132812 189.382812 288.527344 189.375 C 289.96875 189.371094 291.347656 189.207031 292.707031 188.902344 C 294.066406 188.597656 295.421875 188.144531 296.816406 187.5625 C 298.210938 186.980469 299.632812 186.277344 301.035156 185.359375 C 302.433594 184.449219 303.820312 183.324219 305.144531 181.898438 C 306.492188 180.453125 307.777344 178.695312 308.894531 176.78125 C 309.992188 174.90625 310.917969 172.898438 311.570312 170.902344 C 313.289062 165.652344 313.179688 159.578125 311.703125 153.796875 C 310.15625 147.769531 307.121094 142.074219 303.109375 137.964844 C 301.859375 136.683594 300.496094 135.535156 299.011719 134.523438 C 297.519531 133.503906 295.910156 132.617188 294.175781 131.867188 C 288.855469 129.5625 283.171875 128.660156 277.929688 129.625 C 273.226562 130.488281 268.867188 132.859375 265.441406 137.078125 C 264.25 138.546875 263.085938 140.292969 262.066406 142.175781 C 261.101562 143.949219 260.273438 145.835938 259.671875 147.714844 C 259.101562 149.503906 258.738281 151.3125 258.523438 153.066406 C 258.277344 155.09375 258.242188 157.035156 258.335938 158.792969 C 258.425781 160.429688 258.625 161.917969 258.882812 163.261719 C 259.144531 164.625 259.457031 165.828125 259.769531 166.898438 C 259.917969 167.402344 260.109375 168.011719 260.289062 168.578125 C 260.742188 170.035156 261.117188 171.226562 261.199219 172.304688 Z M 271.546875 161.238281 C 271.734375 162.507812 271.898438 163.597656 271.378906 164.96875 C 272.734375 165.136719 273.304688 166.054688 273.960938 167.113281 L 273.964844 167.113281 L 274.085938 167.308594 L 274.082031 167.3125 C 274.402344 167.820312 274.765625 168.359375 275.175781 168.894531 C 275.574219 169.417969 276.019531 169.9375 276.507812 170.429688 C 276.992188 170.910156 277.507812 171.351562 278.054688 171.753906 C 278.632812 172.179688 279.25 172.566406 279.894531 172.914062 C 280.554688 173.273438 281.246094 173.59375 281.945312 173.863281 C 282.613281 174.121094 283.300781 174.332031 283.988281 174.488281 C 284.65625 174.640625 285.332031 174.734375 285.996094 174.78125 C 286.691406 174.828125 287.378906 174.820312 288.054688 174.761719 C 288.703125 174.707031 289.332031 174.609375 289.957031 174.445312 C 290.59375 174.277344 291.242188 174.039062 291.933594 173.707031 C 292.664062 173.355469 293.433594 172.902344 294.164062 172.390625 C 294.859375 171.90625 295.519531 171.371094 296.078125 170.816406 C 296.699219 170.203125 297.238281 169.53125 297.703125 168.816406 C 299.746094 165.664062 300.324219 161.601562 299.726562 157.640625 C 299.121094 153.652344 297.332031 149.792969 294.640625 147.074219 C 293.921875 146.351562 293.144531 145.710938 292.308594 145.167969 C 289.988281 143.667969 287.410156 142.867188 284.839844 142.835938 C 282.351562 142.808594 279.863281 143.503906 277.613281 144.984375 C 275.15625 146.601562 273.464844 148.871094 272.453125 151.4375 C 271.320312 154.3125 271.035156 157.566406 271.46875 160.730469 C 271.476562 160.777344 271.511719 161.007812 271.546875 161.238281 Z M 279.589844 54.058594 C 282.496094 53.890625 286.628906 53.691406 290.585938 53.542969 C 291.851562 53.496094 293.097656 53.457031 294.277344 53.425781 C 294.304688 52.285156 294.390625 51.050781 294.527344 49.785156 C 294.578125 49.300781 294.636719 48.808594 294.703125 48.316406 C 293.242188 48.449219 291.664062 48.578125 290.09375 48.699219 C 287.058594 48.929688 284 49.125 281.824219 49.21875 C 281.554688 49.230469 281.296875 49.242188 281.054688 49.25 C 280.867188 49.785156 280.679688 50.371094 280.492188 50.96875 C 280.164062 52.03125 279.847656 53.128906 279.589844 54.058594 Z M 290.648438 55.390625 C 286.417969 55.546875 281.910156 55.769531 278.957031 55.945312 L 278.957031 55.949219 C 279.195312 56.097656 280.0625 56.125 281.816406 56.136719 C 283.976562 56.152344 287.34375 56.125 290.652344 56.046875 C 291.90625 56.015625 293.152344 55.976562 294.324219 55.929688 C 294.308594 55.714844 294.296875 55.496094 294.285156 55.273438 C 293.125 55.304688 291.898438 55.34375 290.648438 55.390625 Z M 296.125 53.382812 C 296.945312 53.367188 297.710938 53.355469 298.40625 53.355469 C 298.535156 52.832031 298.664062 52.285156 298.789062 51.746094 C 298.980469 50.929688 299.164062 50.132812 299.359375 49.398438 C 299.523438 48.777344 299.683594 48.242188 299.882812 47.765625 C 299.355469 47.835938 298.765625 47.90625 298.109375 47.980469 C 297.636719 48.03125 297.128906 48.085938 296.59375 48.136719 C 296.507812 48.757812 296.429688 49.375 296.367188 49.980469 C 296.238281 51.171875 296.15625 52.320312 296.125 53.382812 Z M 297.953125 55.203125 C 297.386719 55.207031 296.777344 55.214844 296.132812 55.226562 C 296.140625 55.4375 296.152344 55.644531 296.167969 55.84375 C 296.6875 55.8125 297.175781 55.785156 297.632812 55.75 L 297.851562 55.734375 C 297.878906 55.5625 297.910156 55.382812 297.953125 55.203125 Z M 301.507812 55.261719 C 301.058594 55.234375 300.511719 55.214844 299.851562 55.207031 C 299.820312 55.324219 299.792969 55.441406 299.769531 55.550781 C 300.496094 55.460938 301.0625 55.363281 301.507812 55.261719 Z M 297.992188 57.578125 L 297.765625 57.597656 C 297.351562 57.625 296.910156 57.652344 296.441406 57.679688 C 296.636719 58.488281 296.902344 59.160156 297.179688 59.859375 C 297.8125 61.453125 298.492188 63.164062 298.621094 66.71875 C 298.75 70.316406 298.308594 75.757812 297.878906 81.058594 C 297.609375 84.371094 297.34375 87.625 297.230469 90.246094 C 297.078125 93.691406 297.164062 96.222656 297.378906 98.101562 C 297.585938 99.90625 297.90625 101.078125 298.238281 101.875 C 298.261719 101.738281 298.28125 101.589844 298.304688 101.425781 C 298.535156 99.640625 298.550781 96.4375 298.570312 92.882812 C 298.578125 91.4375 298.585938 89.9375 298.605469 88.457031 C 298.644531 85.835938 298.730469 83.265625 298.851562 80.820312 C 298.976562 78.351562 299.140625 75.972656 299.34375 73.769531 C 299.53125 71.753906 299.746094 69.910156 299.964844 68.269531 C 300.230469 66.300781 300.507812 64.609375 300.761719 63.257812 C 300.859375 62.738281 300.90625 62.492188 300.953125 62.265625 C 301.257812 60.695312 301.4375 59.785156 301.210938 59.53125 C 301.0625 59.363281 300.609375 59.214844 300.160156 59.070312 C 299.492188 58.851562 298.832031 58.636719 298.363281 58.132812 C 298.203125 57.960938 298.082031 57.773438 297.992188 57.578125 Z M 279.746094 47.4375 C 279.769531 47.375 279.792969 47.3125 279.820312 47.253906 C 280.296875 46.078125 280.714844 45.414062 281.710938 44.949219 C 282.554688 44.554688 283.734375 44.398438 285.804688 44.207031 C 288.054688 44 291.40625 43.742188 294.546875 43.574219 C 294.878906 43.558594 295.210938 43.542969 295.539062 43.527344 C 295.695312 42.824219 295.859375 42.144531 296.03125 41.488281 C 296.683594 39.015625 297.46875 36.945312 298.34375 35.300781 C 299.28125 33.535156 300.339844 32.230469 301.460938 31.414062 C 302.363281 30.761719 303.25 30.449219 304.207031 30.113281 C 305.445312 29.679688 306.8125 29.199219 308.386719 27.726562 C 309.691406 26.507812 311.175781 24.589844 312.777344 22.523438 C 314.613281 20.15625 316.59375 17.601562 318.695312 15.570312 C 320.714844 13.617188 322.824219 12.171875 324.941406 11.121094 C 327.0625 10.070312 329.1875 9.414062 331.242188 9.039062 C 333.300781 8.660156 335.292969 8.566406 337.292969 8.785156 C 339.296875 9.003906 341.308594 9.535156 343.417969 10.40625 C 345.609375 11.316406 347.914062 12.59375 350.257812 14.335938 C 352.359375 15.898438 354.496094 17.832031 356.621094 20.207031 C 358.914062 22.765625 361.179688 25.820312 363.320312 29.300781 C 365.359375 32.609375 367.292969 36.3125 369.035156 40.355469 C 370.707031 44.234375 372.207031 48.433594 373.527344 52.730469 C 375.011719 57.558594 376.265625 62.484375 377.292969 67.199219 C 378.261719 71.660156 379.03125 75.953125 379.632812 80.140625 C 380.234375 84.320312 380.664062 88.382812 380.945312 92.382812 C 381.496094 100.09375 381.511719 107.632812 381.523438 112.996094 L 381.527344 113.503906 C 381.535156 116.179688 381.542969 118.269531 381.550781 120.0625 C 381.566406 121.578125 381.574219 122.894531 381.585938 124.179688 C 382.6875 124.621094 383.03125 125.222656 383.078125 126.394531 L 383.175781 126.398438 L 383.40625 126.40625 C 384.917969 126.460938 385.558594 126.484375 385.96875 124.070312 C 386.253906 122.40625 386.449219 119.839844 386.523438 116.582031 C 386.597656 113.441406 386.558594 109.660156 386.398438 105.417969 C 386.21875 100.730469 385.878906 95.480469 385.300781 89.9375 C 384.808594 85.234375 384.148438 80.339844 383.265625 75.417969 C 382.371094 70.425781 381.238281 65.359375 379.988281 60.453125 C 378.566406 54.871094 377 49.542969 375.453125 44.792969 C 374.015625 40.363281 372.597656 36.433594 371.210938 33.003906 C 369.804688 29.519531 368.425781 26.539062 367.085938 24.070312 C 365.773438 21.648438 364.5 19.71875 363.15625 17.992188 C 361.804688 16.253906 360.390625 14.726562 358.808594 13.117188 C 357.21875 11.503906 355.457031 9.808594 353.480469 8.265625 C 351.519531 6.738281 349.332031 5.351562 346.863281 4.328125 C 344.394531 3.308594 341.628906 2.644531 338.542969 2.28125 C 335.425781 1.914062 332 1.851562 328.25 2.027344 C 324.300781 2.214844 319.976562 2.671875 315.792969 3.40625 C 312.042969 4.0625 308.421875 4.945312 305.304688 6.050781 C 302.046875 7.207031 299.34375 8.609375 296.964844 10.324219 C 294.585938 12.039062 292.515625 14.078125 290.523438 16.511719 C 288.667969 18.777344 286.890625 21.371094 285.269531 24.019531 C 283.367188 27.140625 281.683594 30.332031 280.351562 33.171875 C 279.203125 35.625 278.308594 37.824219 277.652344 39.703125 C 276.914062 41.820312 276.476562 43.515625 276.304688 44.714844 C 276.164062 45.707031 276.207031 46.28125 276.34375 46.625 C 276.4375 46.855469 276.613281 46.984375 276.792969 47.09375 C 277.011719 47.222656 277.242188 47.324219 277.828125 47.382812 C 278.269531 47.429688 278.878906 47.449219 279.746094 47.4375 Z M 282.492188 46.621094 C 282.1875 46.761719 281.988281 46.996094 281.792969 47.371094 C 283.878906 47.28125 286.894531 47.085938 289.957031 46.855469 C 291.6875 46.722656 293.417969 46.578125 294.984375 46.433594 C 295.042969 46.085938 295.101562 45.738281 295.164062 45.394531 L 294.640625 45.421875 C 291.488281 45.589844 288.175781 45.84375 285.96875 46.046875 C 284.117188 46.214844 283.082031 46.34375 282.492188 46.621094 Z M 297.453125 43.449219 C 298.746094 43.402344 299.929688 43.386719 300.890625 43.40625 C 302.527344 43.4375 303.554688 43.589844 304.164062 43.796875 C 304.242188 43.675781 304.324219 43.539062 304.414062 43.382812 C 304.84375 42.621094 305.386719 41.433594 306.195312 39.484375 C 306.476562 38.804688 306.84375 37.894531 307.242188 36.910156 C 308.402344 34.039062 309.835938 30.492188 311.316406 27.308594 C 310.742188 27.976562 310.191406 28.570312 309.652344 29.074219 C 307.796875 30.8125 306.230469 31.363281 304.816406 31.859375 C 304 32.144531 303.238281 32.410156 302.546875 32.910156 C 301.65625 33.5625 300.785156 34.652344 299.980469 36.167969 C 299.167969 37.703125 298.433594 39.636719 297.820312 41.960938 C 297.691406 42.441406 297.570312 42.9375 297.453125 43.449219 Z M 300.851562 45.25 C 299.824219 45.230469 298.511719 45.253906 297.0625 45.308594 C 297.003906 45.621094 296.945312 45.933594 296.890625 46.25 C 297.246094 46.210938 297.585938 46.175781 297.90625 46.140625 C 299.679688 45.945312 300.925781 45.765625 301.808594 45.582031 C 301.960938 45.492188 302.113281 45.40625 302.269531 45.320312 C 301.882812 45.285156 301.414062 45.261719 300.851562 45.25 Z M 381.160156 128.195312 C 379.757812 128.175781 378.132812 128.164062 376.484375 128.15625 C 375.667969 128.152344 374.84375 128.144531 374.058594 128.140625 C 372.398438 128.125 370.8125 128.105469 369.460938 128.046875 C 368.84375 128.019531 368.265625 127.980469 367.738281 127.933594 C 367.8125 128.113281 367.882812 128.308594 367.953125 128.523438 C 368.210938 129.359375 368.371094 130.457031 368.417969 131.792969 C 368.46875 133.085938 368.417969 134.597656 368.269531 136.308594 C 368.105469 138.160156 367.824219 140.269531 367.453125 142.191406 C 367.125 143.859375 366.722656 145.386719 366.257812 146.496094 C 366.160156 146.734375 366.058594 146.953125 365.957031 147.152344 C 367.371094 146.941406 369.109375 146.722656 370.863281 146.53125 C 372.804688 146.316406 374.785156 146.132812 376.402344 146.023438 C 378.046875 145.914062 379.347656 145.878906 380.4375 145.917969 L 380.570312 145.921875 C 380.589844 145.398438 380.605469 144.78125 380.621094 144.054688 C 380.632812 143.539062 380.644531 142.972656 380.65625 142.367188 C 380.730469 138.546875 380.835938 133.203125 381.03125 129.996094 C 381.066406 129.4375 381.097656 129.023438 381.125 128.648438 Z M 376.488281 126.308594 C 378.125 126.320312 379.734375 126.328125 381.125 126.351562 C 381.019531 126.023438 380.808594 125.847656 380.414062 125.734375 C 379.609375 125.503906 378.328125 125.347656 376.882812 125.253906 C 375.144531 125.140625 373.199219 125.121094 371.539062 125.175781 C 370.027344 125.226562 368.753906 125.335938 367.746094 125.492188 C 367.207031 125.578125 366.75 125.671875 366.382812 125.777344 C 366.410156 125.816406 366.4375 125.859375 366.464844 125.898438 C 367.214844 126.050781 368.28125 126.144531 369.539062 126.199219 C 370.90625 126.261719 372.457031 126.28125 374.074219 126.292969 C 374.882812 126.300781 375.6875 126.304688 376.488281 126.308594 Z M 365.652344 124.074219 C 366.144531 123.914062 366.753906 123.78125 367.460938 123.667969 C 368.546875 123.5 369.894531 123.382812 371.484375 123.332031 C 373.210938 123.273438 375.21875 123.292969 377 123.40625 C 378.003906 123.472656 378.941406 123.570312 379.734375 123.699219 C 379.726562 122.578125 379.71875 121.410156 379.707031 120.066406 C 379.695312 118.277344 379.6875 116.191406 379.679688 113.503906 L 379.675781 112.996094 C 379.667969 107.6875 379.648438 100.230469 379.097656 92.511719 C 378.816406 88.550781 378.394531 84.53125 377.800781 80.398438 C 377.207031 76.273438 376.445312 72.023438 375.480469 67.589844 C 374.457031 62.898438 373.21875 58.019531 371.757812 53.273438 C 370.464844 49.058594 368.988281 44.921875 367.335938 41.085938 C 365.628906 37.132812 363.738281 33.507812 361.742188 30.269531 C 359.648438 26.863281 357.449219 23.898438 355.246094 21.4375 C 353.210938 19.164062 351.164062 17.3125 349.152344 15.820312 C 346.9375 14.171875 344.773438 12.964844 342.710938 12.113281 C 340.773438 11.3125 338.929688 10.824219 337.097656 10.621094 C 335.273438 10.421875 333.457031 10.507812 331.574219 10.855469 C 329.679688 11.199219 327.71875 11.804688 325.761719 12.777344 C 324.726562 13.292969 323.691406 13.910156 322.667969 14.644531 C 322.8125 14.652344 322.960938 14.667969 323.109375 14.691406 C 324.074219 14.84375 325.089844 15.332031 326.46875 16.167969 C 327.941406 17.058594 329.871094 18.367188 331.960938 20.0625 C 333.582031 21.375 335.308594 22.921875 337.003906 24.695312 C 338.941406 26.726562 340.839844 29.050781 342.71875 31.765625 C 344.589844 34.46875 346.433594 37.558594 348.269531 41.121094 C 350.121094 44.710938 351.964844 48.804688 353.671875 53.089844 C 355.335938 57.265625 356.855469 61.613281 358.109375 65.847656 C 359.382812 70.140625 360.382812 74.328125 361.179688 78.5625 C 361.980469 82.792969 362.578125 87.070312 363.042969 91.554688 C 363.746094 98.296875 364.152344 105.488281 364.472656 111.15625 C 364.574219 112.984375 364.671875 114.648438 364.765625 116.160156 C 364.957031 119.082031 365.136719 121.050781 365.34375 122.449219 C 365.441406 123.117188 365.539062 123.644531 365.652344 124.074219 Z M 382.210938 147.941406 C 382.199219 148 382.183594 148.054688 382.171875 148.109375 C 381.886719 149.21875 381.367188 149.761719 380.367188 150.179688 C 378.925781 150.789062 376.375 151.054688 373.195312 151.390625 L 372.523438 151.460938 L 371.785156 151.539062 C 368.699219 151.867188 365.25 152.234375 363.167969 152.136719 C 363.132812 152.582031 363.105469 153.082031 363.078125 153.625 C 363.042969 154.300781 363.007812 155.035156 362.949219 155.742188 C 362.902344 156.347656 362.839844 156.992188 362.746094 157.640625 C 363.136719 157.691406 363.523438 157.757812 363.898438 157.832031 C 365.640625 158.171875 367.207031 158.726562 368.605469 159.425781 C 370.214844 160.222656 371.605469 161.203125 372.789062 162.246094 C 373.898438 163.21875 374.832031 164.246094 375.65625 165.371094 C 376.476562 166.5 377.171875 167.703125 377.800781 169.023438 C 378.433594 170.347656 379.011719 171.804688 379.476562 173.4375 C 379.726562 174.3125 379.945312 175.246094 380.121094 176.238281 C 380.292969 175.144531 380.574219 173.984375 380.929688 172.527344 C 381.121094 171.753906 381.328125 170.894531 381.558594 169.890625 C 382 167.960938 382.519531 165.449219 383.027344 162.917969 C 383.554688 160.261719 384.015625 157.863281 384.363281 156.03125 C 384.726562 154.113281 384.984375 152.726562 385.101562 151.679688 C 385.207031 150.738281 385.199219 150.113281 385.050781 149.652344 C 384.921875 149.257812 384.671875 148.949219 384.328125 148.707031 C 383.929688 148.421875 383.402344 148.21875 382.78125 148.0625 C 382.597656 148.019531 382.40625 147.976562 382.210938 147.941406 Z M 379.652344 148.480469 C 380.023438 148.324219 380.230469 148.128906 380.351562 147.761719 C 379.347656 147.726562 378.117188 147.761719 376.527344 147.871094 C 374.917969 147.976562 372.964844 148.160156 371.058594 148.367188 C 369.109375 148.582031 367.21875 148.824219 365.800781 149.042969 C 365.238281 149.132812 364.75 149.214844 364.320312 149.300781 L 364.273438 149.347656 C 363.960938 149.652344 363.6875 149.917969 363.539062 150.234375 C 363.527344 150.253906 363.515625 150.273438 363.507812 150.296875 C 365.476562 150.351562 368.695312 150.007812 371.59375 149.703125 L 372.332031 149.625 L 373.007812 149.550781 C 376.039062 149.234375 378.46875 148.980469 379.652344 148.480469 Z M 380.753906 184.589844 C 380.707031 184.339844 380.664062 184.09375 380.617188 183.855469 C 380.601562 184.363281 380.578125 184.878906 380.546875 185.398438 C 380.414062 187.675781 380.117188 190.011719 379.679688 192.253906 C 379.238281 194.519531 378.644531 196.695312 377.785156 198.867188 L 377.78125 198.867188 C 376.914062 201.054688 375.78125 203.226562 374.265625 205.46875 C 372.867188 207.53125 371.128906 209.671875 369.269531 211.730469 C 367.144531 214.078125 364.871094 216.3125 362.765625 218.191406 C 360.78125 219.964844 358.953125 221.425781 357.078125 222.707031 C 355.1875 224 353.253906 225.109375 351.078125 226.171875 C 348.828125 227.269531 346.308594 228.316406 343.730469 229.203125 C 341.335938 230.027344 338.882812 230.710938 336.535156 231.167969 C 334.28125 231.605469 332.128906 231.832031 330.164062 231.898438 C 327.890625 231.976562 325.875 231.84375 324.273438 231.585938 C 324.023438 231.546875 323.785156 231.503906 323.558594 231.457031 C 324.9375 232.285156 326.289062 233.023438 327.609375 233.679688 C 329.441406 234.582031 331.199219 235.316406 332.863281 235.878906 C 334.496094 236.433594 336.035156 236.820312 337.570312 237.0625 C 339.117188 237.304688 340.679688 237.40625 342.355469 237.378906 C 344.027344 237.355469 345.820312 237.203125 347.777344 236.859375 C 349.734375 236.515625 351.832031 235.980469 354.109375 235.1875 C 356.527344 234.347656 359.152344 233.214844 361.785156 231.800781 C 364.140625 230.542969 366.496094 229.058594 368.707031 227.363281 C 370.914062 225.671875 372.980469 223.765625 374.796875 221.847656 C 376.832031 219.703125 378.550781 217.546875 379.792969 215.679688 C 380.945312 213.941406 381.683594 212.460938 382.160156 211.109375 C 382.636719 209.765625 382.863281 208.539062 382.996094 207.300781 C 383.136719 206.035156 383.179688 204.765625 383.144531 203.382812 C 383.113281 201.980469 382.996094 200.449219 382.816406 198.675781 C 382.636719 196.878906 382.390625 194.832031 382.105469 192.785156 C 381.835938 190.828125 381.527344 188.84375 381.210938 187.054688 C 381.035156 186.058594 380.890625 185.300781 380.753906 184.589844 Z M 311.039062 220.90625 C 311.796875 221.878906 312.605469 222.796875 313.445312 223.667969 C 312.632812 222.574219 312.046875 221.554688 311.925781 220.824219 C 311.71875 219.601562 312.320312 219.03125 313.535156 218.828125 C 314.355469 218.691406 315.503906 218.785156 316.929688 218.898438 C 317.390625 218.9375 317.878906 218.976562 318.28125 219.003906 C 319.925781 219.117188 321.832031 219.1875 323.949219 219.050781 C 326.066406 218.917969 328.410156 218.578125 330.929688 217.875 C 333.546875 217.148438 336.367188 216.023438 339.296875 214.484375 C 342.039062 213.039062 344.867188 211.234375 347.703125 209.039062 C 350.753906 206.679688 353.816406 203.867188 356.5 200.894531 C 358.976562 198.15625 361.117188 195.289062 362.628906 192.523438 C 364.085938 189.851562 364.960938 187.257812 365.378906 184.824219 C 365.847656 182.097656 365.742188 179.578125 365.246094 177.367188 C 364.792969 175.335938 364.007812 173.5625 362.929688 172.039062 C 361.820312 170.472656 360.394531 169.164062 358.6875 168.097656 C 356.222656 166.5625 353.144531 165.511719 351.003906 164.785156 C 350.121094 164.484375 349.390625 164.234375 348.878906 164.007812 C 348.628906 163.898438 348.417969 163.789062 348.25 163.675781 C 348.1875 164.140625 348.113281 164.613281 348.015625 165.082031 C 347.941406 165.449219 347.859375 165.769531 347.777344 166.085938 C 347.472656 167.308594 347.171875 168.496094 347.785156 169.789062 C 348.183594 170.621094 348.953125 171.585938 349.777344 172.613281 C 350.777344 173.859375 351.84375 175.199219 352.558594 176.652344 C 353.253906 178.074219 353.585938 179.5625 353.589844 181.128906 C 353.597656 182.664062 353.277344 184.261719 352.675781 185.933594 C 352.074219 187.605469 351.179688 189.355469 350.023438 191.101562 C 348.914062 192.773438 347.554688 194.449219 345.96875 196.0625 C 344.277344 197.777344 342.328125 199.421875 340.28125 200.785156 C 338.398438 202.035156 336.433594 203.050781 334.5 203.671875 C 331.648438 204.589844 328.957031 204.625 326.398438 204.660156 C 325.382812 204.675781 324.390625 204.6875 323.375 204.765625 C 321.972656 204.871094 320.597656 205.109375 319.238281 205.34375 C 317.347656 205.671875 315.46875 205.992188 313.480469 205.992188 C 311.730469 205.992188 309.925781 205.738281 308.3125 205.511719 C 306.839844 205.304688 305.539062 205.121094 304.722656 205.199219 C 304.253906 205.246094 304.007812 205.390625 303.957031 205.671875 C 303.847656 206.257812 304.066406 207.25 304.558594 208.710938 C 305.144531 210.453125 306.113281 212.777344 307.40625 215.210938 C 308.433594 217.140625 309.652344 219.121094 311.039062 220.90625 Z M 348.929688 160.640625 C 348.78125 160.878906 348.675781 161.195312 348.589844 161.566406 C 348.625 161.558594 348.664062 161.546875 348.710938 161.539062 C 349.273438 161.4375 350.320312 161.480469 351.589844 161.683594 C 352.101562 161.765625 352.574219 161.859375 353.066406 161.957031 C 355.125 162.359375 357.527344 162.832031 358.84375 162.0625 C 359.609375 161.617188 360.113281 160.679688 360.453125 159.570312 C 360.480469 159.472656 360.511719 159.375 360.535156 159.277344 C 359.71875 159.226562 358.898438 159.210938 358.089844 159.214844 C 356.242188 159.222656 354.476562 159.351562 353.078125 159.476562 C 351.722656 159.601562 350.734375 159.722656 350.023438 159.933594 C 349.476562 160.097656 349.136719 160.3125 348.929688 160.640625 Z M 363.542969 159.648438 C 363.171875 159.574219 362.789062 159.511719 362.398438 159.457031 C 362.34375 159.675781 362.285156 159.894531 362.21875 160.105469 C 361.753906 161.628906 361 162.949219 359.78125 163.660156 C 358.371094 164.484375 356.507812 164.410156 354.671875 164.128906 C 356.316406 164.761719 358.089844 165.546875 359.664062 166.527344 C 361.578125 167.722656 363.1875 169.199219 364.441406 170.976562 C 365.65625 172.691406 366.539062 174.683594 367.046875 176.96875 C 367.59375 179.402344 367.714844 182.164062 367.207031 185.136719 C 366.757812 187.753906 365.816406 190.535156 364.25 193.40625 C 362.664062 196.316406 360.433594 199.300781 357.878906 202.132812 C 355.121094 205.179688 351.976562 208.070312 348.832031 210.5 C 345.90625 212.765625 342.988281 214.628906 340.15625 216.121094 C 337.113281 217.722656 334.167969 218.890625 331.421875 219.65625 C 328.757812 220.398438 326.296875 220.753906 324.066406 220.898438 C 321.84375 221.039062 319.863281 220.964844 318.160156 220.847656 C 317.605469 220.808594 317.183594 220.777344 316.785156 220.742188 C 315.480469 220.636719 314.425781 220.554688 313.835938 220.652344 C 313.796875 220.65625 313.734375 220.417969 313.75 220.519531 C 313.828125 220.984375 314.375 221.839844 315.125 222.820312 C 316.117188 224.113281 317.425781 225.542969 318.558594 226.632812 C 319.558594 227.59375 320.402344 228.277344 321.3125 228.761719 C 322.214844 229.242188 323.222656 229.546875 324.5625 229.761719 C 326.0625 230.003906 327.953125 230.128906 330.109375 230.054688 C 331.964844 229.988281 334.019531 229.773438 336.183594 229.351562 C 338.433594 228.917969 340.804688 228.253906 343.128906 227.453125 C 345.636719 226.589844 348.082031 225.574219 350.265625 224.507812 C 352.371094 223.480469 354.230469 222.414062 356.035156 221.179688 C 357.855469 219.933594 359.625 218.523438 361.53125 216.816406 C 363.597656 214.972656 365.824219 212.789062 367.898438 210.496094 C 369.6875 208.515625 371.371094 206.445312 372.730469 204.433594 C 374.179688 202.292969 375.253906 200.238281 376.066406 198.191406 L 376.0625 198.1875 C 376.882812 196.125 377.441406 194.054688 377.863281 191.898438 C 378.285156 189.726562 378.570312 187.472656 378.699219 185.289062 C 378.832031 183.089844 378.816406 180.960938 378.640625 179.054688 C 378.464844 177.167969 378.132812 175.476562 377.695312 173.941406 C 377.261719 172.421875 376.722656 171.058594 376.128906 169.820312 C 375.535156 168.574219 374.898438 167.464844 374.164062 166.457031 C 373.425781 165.445312 372.582031 164.515625 371.574219 163.632812 C 370.5 162.691406 369.242188 161.804688 367.789062 161.082031 C 366.527344 160.457031 365.117188 159.953125 363.542969 159.648438 Z M 363.542969 159.648438 " fill-opacity="1" fill-rule="nonzero"/></g></svg>