<svg xmlns="http://www.w3.org/2000/svg" xmlns:xlink="http://www.w3.org/1999/xlink" width="585" zoomAndPan="magnify" viewBox="0 0 438.75 157.5" height="210" preserveAspectRatio="xMidYMid meet" version="1.0"><defs><clipPath id="20cc66ed17"><path d="M 3.660156 1.964844 L 435.285156 1.964844 L 435.285156 155.316406 L 3.660156 155.316406 Z M 3.660156 1.964844 " clip-rule="nonzero"/></clipPath></defs><g clip-path="url(#20cc66ed17)"><path stroke-linecap="butt" transform="matrix(0.133901, 0, 0, 0.134013, -37.589491, -65.950966)" fill="none" stroke-linejoin="miter" d="M 3525.668643 875.104752 C 3359.559071 959.197737 3193.4495 1043.261574 3044.114253 1069.932312 C 2894.749833 1096.573903 2762.101392 1065.822395 2704.368543 1026.530422 C 2646.664867 987.2093 2663.701746 939.37686 2659.063281 888.104915 C 2654.395643 836.83297 2628.05266 782.092372 2578.459005 740.789162 C 2528.86535 699.485952 2456.166887 671.416093 2421.188773 640.664585 C 2386.181488 609.913078 2388.923725 576.421626 2401.905593 552.811463 C 2414.887462 529.230449 2438.138134 515.559874 2452.141049 521.389544 C 2466.173136 527.190065 2470.928292 552.490831 2474.370675 659.11549 C 2477.783886 765.769297 2479.825977 955.116968 2475.362548 1064.131791 C 2470.899119 1173.117466 2459.988515 1202.528149 2431.282541 1224.010482 C 2402.547394 1245.463667 2354.733276 1259.309132 2314.737452 1258.259792 C 2274.7708 1257.239599 2242.009815 1241.499491 2232.003566 1213.80856 C 2221.997317 1186.117629 2235.066704 1146.475875 2266.514915 1118.114532 C 2297.963127 1089.753189 2347.877682 1072.672257 2382.038959 1069.990609 C 2416.200235 1067.338109 2437.408816 1080.892091 2438.079789 1101.733161 C 2438.779935 1122.603378 2420.313591 1151.605985 2368.356944 1162.740654 C 2316.42947 1173.846175 2231.011693 1166.996313 2146.935861 1194.337463 C 2062.889203 1221.649466 1980.155317 1283.181629 1945.935695 1327.982641 C 1911.716073 1372.754504 1926.098233 1400.766067 1942.522485 1404.176424 C 1958.917563 1407.58678 1977.383907 1386.395931 1990.015702 1351.563655 C 2002.647498 1316.70223 2009.503092 1268.17023 1995.85025 1222.873697 C 1982.168236 1177.606311 1947.977787 1135.574393 1906.990089 1103.452913 C 1865.973219 1071.331433 1818.129929 1049.091243 1784.989698 1022.945175 C 1751.849468 996.799106 1733.383124 966.718011 1738.488353 939.697492 C 1743.622755 912.706121 1772.32873 888.775327 1788.752981 888.425547 C 1805.14806 888.104915 1809.261416 911.336149 1809.932389 1011.839654 C 1810.603362 1112.314011 1807.91947 1290.031491 1806.169106 1396.65615 C 1804.418742 1503.309957 1803.776942 1538.841793 1784.639625 1568.573109 C 1765.502309 1598.304424 1727.898649 1622.235218 1690.645063 1633.165849 C 1653.391476 1644.096479 1616.487962 1642.056095 1592.887217 1625.295795 C 1569.286472 1608.564643 1559.046841 1577.142723 1573.749901 1546.303771 C 1588.452961 1515.493966 1628.098712 1485.471167 1667.744463 1468.390235 C 1707.390214 1451.309303 1747.035966 1447.199386 1764.13119 1459.499989 C 1781.197242 1471.800592 1775.74194 1500.511715 1751.820295 1519.3124 C 1727.898649 1538.113085 1685.539834 1547.003331 1654.412522 1469.760208 C 1623.314383 1392.517084 1603.506094 1229.140591 1568.644671 1130.356839 C 1533.783249 1031.602234 1483.868694 997.382073 1457.233984 989.220536 C 1430.570101 981.058998 1427.127718 998.781194 1428.20711 1020.496714 C 1429.286501 1042.212233 1434.71263 1067.86278 1447.694499 1061.012918 C 1460.676367 1054.192204 1481.184802 1014.871082 1489.703242 975.72485 C 1498.221681 936.607767 1494.808471 897.636425 1473.629063 861.405028 C 1452.449655 825.173631 1413.474877 791.682179 1376.571363 759.560699 C 1339.667849 727.439219 1304.806427 696.658563 1297.629933 668.967632 C 1290.45344 641.276701 1310.961875 616.675495 1324.293816 619.065659 C 1337.596585 621.484972 1343.752033 650.866507 1347.865389 739.390041 C 1351.949572 827.913576 1354.020836 975.54996 1347.165243 1066.813439 C 1340.338822 1158.04777 1324.614716 1192.909194 1294.887696 1216.81084 C 1265.131503 1240.683337 1221.401568 1253.712649 1191.995448 1241.761826 C 1162.618501 1229.781855 1147.565368 1192.880046 1157.834172 1163.994033 C 1168.073803 1135.108019 1203.635371 1114.296099 1235.083583 1103.86099 C 1266.531794 1093.45503 1293.86665 1093.45503 1299.001052 1108.991099 C 1304.106281 1124.527169 1286.981884 1155.628457 1243.572849 1176.323784 C 1200.163815 1196.989963 1130.499316 1207.221033 1029.32826 1191.684964 C 928.157204 1176.119746 795.567109 1134.787388 671.14538 1148.137331 C 546.752824 1161.458126 430.528635 1229.461223 314.333619 1297.46432 " stroke="#000000" stroke-width="14" stroke-opacity="1" stroke-miterlimit="4"/></g></svg>