<svg xmlns="http://www.w3.org/2000/svg" xmlns:xlink="http://www.w3.org/1999/xlink" width="730" zoomAndPan="magnify" viewBox="0 0 547.5 382.499989" height="510" preserveAspectRatio="xMidYMid meet" version="1.0"><defs><clipPath id="7fc0ada35f"><path d="M 0.109375 1 L 546 1 L 546 380.851562 L 0.109375 380.851562 Z M 0.109375 1 " clip-rule="nonzero"/></clipPath></defs><g clip-path="url(#7fc0ada35f)"><path stroke-linecap="round" transform="matrix(0.0336121, 0, 0, -0.0336249, 0.17921, 380.58012)" fill="none" stroke-linejoin="round" d="M 26.395108 1890.51322 C 299.036643 2002.734596 571.561962 2115.072144 1080.5858 2131.103769 C 1589.609638 2147.135394 2335.131993 2066.861097 2800.110161 2111.006152 C 3265.088329 2155.151207 3449.522308 2323.483271 3581.775533 2503.780969 C 3714.028759 2684.194838 3794.217446 2876.57434 3689.972153 2956.732466 C 3585.72686 3036.890592 3297.163803 3004.827341 3048.69509 2976.830083 C 2800.110161 2948.716653 2591.735791 2924.669216 2367.207468 2760.286972 C 2142.795361 2596.020899 1902.345516 2291.420021 1974.399118 2151.085215 C 2046.568937 2010.750409 2431.358417 2034.914018 2880.298848 2050.945643 C 3329.239278 2066.861097 3842.330658 2074.993081 4303.241283 2066.861097 C 4764.268124 2058.845284 5172.997996 2034.914018 5509.79048 2082.892722 C 5846.466749 2131.103769 6110.973199 2251.340958 6207.199624 2383.54378 C 6303.309832 2515.862773 6231.25623 2660.1474 6127.010937 2704.176284 C 6022.765644 2748.321338 5886.561092 2692.21065 5750.240325 2588.005087 C 5613.919557 2483.799523 5477.715005 2331.499084 5249.235356 2275.388396 C 5020.755706 2219.277707 4700.117175 2259.35677 4439.562051 2383.54378 C 4179.006926 2507.846961 3978.53521 2716.258088 3958.546146 2876.57434 C 3938.440866 3036.890592 4098.81824 3149.111968 4235.139007 3036.890592 C 4371.459775 2924.669216 4483.607721 2588.005087 4455.599788 2583.939095 C 4427.47564 2579.989274 4259.195613 2908.63759 4227.120138 3105.083084 C 4195.044664 3301.528579 4299.289957 3365.538908 4587.853013 3397.71833 C 4876.41607 3429.78158 5349.413106 3429.78158 5589.862951 3345.557462 C 5830.429011 3261.333344 5838.44788 3093.00128 5654.013901 3012.843154 C 5469.696136 2932.685028 5092.925524 2940.700841 4828.302858 2984.845896 C 4563.796407 3028.874779 4411.437902 3109.032905 4447.580919 3153.17796 C 4483.607721 3197.206844 4708.136043 3205.222656 5020.755706 3221.254281 C 5333.375369 3237.285907 5734.202587 3261.333344 5886.561092 3105.083084 C 6038.803381 2948.716653 5942.576957 2612.052524 6147.000001 2391.559593 C 6351.423044 2171.182832 6856.495555 2066.861097 7161.096349 1866.465782 C 7465.813359 1666.070467 7569.942436 1369.485401 7686.27414 1096.947773 C 7802.489628 824.293974 7930.791527 575.803784 7782.384348 447.550782 C 7634.093386 319.297781 7209.209561 311.281968 6636.034774 283.28471 C 6062.859987 255.17128 5341.394238 207.076404 4792.276057 175.013154 C 4243.157876 142.949904 3866.387264 126.918278 4002.591816 114.836474 C 4138.912583 102.870841 4788.208515 94.855028 5409.496514 70.80759 C 6030.784513 46.760152 6624.064579 6.68109 6904.608767 50.709973 C 7185.152955 94.855028 7153.077481 223.10803 6736.328741 271.202905 C 6319.347569 319.297781 5517.809349 287.23453 5132.903652 527.708908 C 4748.230387 768.299457 4780.189646 1281.311463 4720.106239 1513.770028 C 4660.022831 1746.228593 4507.664327 1698.133718 4347.286953 1485.77277 C 4187.025795 1273.29565 4018.629553 896.552458 3918.451802 619.948838 C 3818.274052 343.345218 3786.198577 166.997341 3866.387264 395.506086 C 3946.57595 623.898659 4138.912583 1257.264025 4415.505445 1557.915083 C 4692.098306 1858.44997 5052.831181 1826.386719 5549.768608 1846.484336 C 6046.82225 1866.465782 6680.080444 1938.608095 7109.031811 1986.702971 C 7537.983177 2034.914018 7762.395284 2058.845284 7822.478692 2115.072144 C 7882.678314 2171.182832 7778.433022 2259.35677 8002.845129 2102.990339 C 8227.373452 1946.623908 8780.44296 1545.833278 9129.205639 1293.277096 C 9477.968319 1040.837085 9622.191739 936.631521 9738.407227 900.502279 C 9854.738931 864.489208 9942.946486 896.552458 10796.665461 1064.884523 C 11650.384436 1233.216587 13269.731047 1537.817466 14067.434157 1682.102093 C 14865.021051 1826.386719 14840.964445 1810.355094 15073.511636 2355.546521 C 15305.942612 2900.621778 15794.977386 4006.920087 16043.562315 4560.011156 C 16292.031028 5113.218396 16299.933682 5113.218396 15494.327919 5033.06027 C 14688.722156 4952.902144 13069.25933 4792.585892 12171.494685 4700.345962 C 11273.613824 4608.106031 11097.314929 4584.174765 10997.137178 4519.932093 C 10896.959428 4455.805592 10872.786606 4351.600028 10675.685138 3741.701244 C 10478.699886 3131.80246 10108.553557 2016.094284 9964.330136 1563.142787 C 9819.9905 1110.307461 9901.457557 1319.996471 9813.947295 1485.075742 C 9726.437032 1650.038842 9469.94945 1770.276031 9385.693221 1838.468524 C 9301.553208 1906.544845 9389.760763 1922.57647 9534.100399 1938.608095 C 9678.32382 1954.639721 9878.795537 1970.671346 10015.000089 2090.908535 C 10151.320856 2211.261895 10223.490674 2435.704647 10259.517476 2563.957649 C 10295.544277 2692.21065 10295.544277 2724.273901 9970.954419 2680.245017 C 9646.248345 2636.099962 8996.952414 2515.862773 8596.822488 2418.859824 C 8196.808779 2321.973046 8045.961075 2248.436678 7781.454624 2300.481374 C 7516.948174 2352.642242 7138.66676 2530.384173 6786.417616 2696.857498 C 6434.168472 2863.214652 6108.067812 3018.187029 6120.038008 3082.31353 C 6132.008203 3146.440031 6482.281684 3119.720655 6797.690518 3190.585085 C 7113.099353 3261.333344 7393.643541 3429.78158 7610.03678 3469.860643 C 7826.546234 3509.939706 7978.788523 3421.765767 8095.120227 3437.797393 C 8211.335715 3453.829018 8291.524401 3574.066207 8411.691216 3650.158341 C 8531.974246 3726.366646 8692.35162 3758.429896 8900.72599 3814.540584 C 9109.216575 3870.651273 9365.704157 3950.809399 9309.572077 3934.777773 C 9253.439996 3918.746148 8884.688252 3806.524772 8632.151997 3654.224333 C 8379.615741 3501.923893 8243.411189 3309.42822 8151.136092 3189.191031 C 8058.97721 3068.953842 8010.863998 3020.858967 8026.901735 3000.877521 C 8042.939472 2980.779904 8123.128159 2988.795716 8223.30591 3073.019834 C 8323.599876 3157.127781 8443.766691 3317.560204 8443.766691 3317.560204 C 8443.766691 3317.560204 8323.599876 3157.127781 8263.400253 3052.922217 C 8203.316846 2948.716653 8203.316846 2900.621778 8251.430058 2896.671957 C 8299.54327 2892.605965 8395.653479 2932.685028 8536.041788 3048.972396 C 8676.313882 3165.143593 8860.631646 3357.639267 8864.699188 3369.6049 C 8868.650515 3381.686704 8692.35162 3213.238469 8640.170865 3105.083084 C 8588.106327 2996.811529 8660.276145 2948.716653 8760.453896 3000.877521 C 8860.631646 3052.922217 8988.933545 3205.222656 9149.194703 3313.494212 C 9309.572077 3421.765767 9502.024925 3485.892268 9534.100399 3457.778839 C 9566.175874 3429.78158 9437.873975 3309.42822 9345.598878 3205.222656 C 9253.439996 3101.017093 9197.307915 3012.843154 9229.38339 3020.858967 C 9261.458864 3028.874779 9381.741895 3133.080343 9473.900777 3221.254281 C 9566.175874 3309.42822 9630.210608 3381.686704 9742.474769 3389.702517 C 9854.738931 3397.71833 10015.000089 3341.607642 10067.064628 3409.683963 C 10119.245382 3477.876456 10063.113301 3670.255958 9942.946486 3790.493147 C 9822.663456 3910.730336 9638.229477 3958.825211 9670.304951 4050.94897 C 9702.380426 4143.188901 9950.849139 4279.457715 10119.245382 4307.571144 C 10287.641624 4335.568403 10375.849179 4255.410277 10327.735967 4259.476269 C 10279.622755 4263.42609 10095.188776 4351.600028 10099.140102 4467.887396 C 10103.207644 4584.174765 10295.544277 4728.34322 10573.531724 4761.33584 C 10851.519172 4794.212289 11214.925003 4715.68056 11516.62041 4689.193527 C 11818.315817 4662.590322 12058.184584 4687.915643 12173.121702 4783.292196 C 12287.942604 4878.668749 12277.831856 5044.096533 12121.986887 5026.903196 C 11966.258133 5009.82603 11664.678941 4810.243914 11440.150619 4770.164851 C 11215.738511 4730.085788 11068.261057 4849.509778 11074.769124 4997.395712 C 11081.160976 5145.281646 11241.654565 5321.629523 11349.734969 5582.201518 C 11458.047804 5842.657342 11514.063669 6187.453454 11542.187817 6556.180833 C 11570.19575 6924.908213 11570.19575 7317.68303 11421.904787 7586.270837 C 11273.613824 7854.858645 10977.031899 7999.143271 11017.126242 7886.921895 C 11057.220586 7774.700519 11433.991198 7405.973139 11718.602928 7037.129589 C 12003.098443 6668.40221 12195.551291 6299.67483 12387.887923 5958.94471 C 12580.340772 5618.214589 12772.677404 5305.597898 12888.311815 5115.890333 C 13003.946226 4926.182768 13042.645983 4859.38433 13002.55164 4987.637332 C 12962.457296 5115.890333 12843.452637 5439.194774 12655.764623 5628.902339 C 12468.07661 5818.609904 12211.589028 5874.720592 11902.920692 5798.628458 C 11594.252356 5722.420153 11233.519481 5514.009025 10985.050767 5505.993213 C 10736.465839 5497.9774 10600.261287 5690.356902 10636.288088 6027.137202 C 10672.431105 6363.801331 10880.805475 6844.750087 10920.899818 7269.704325 C 10960.994161 7694.542393 10832.692263 8063.269772 10796.665461 8359.854838 C 10760.63866 8656.556075 10816.654525 8880.998828 10844.662458 9069.312338 C 10872.786606 9257.742019 10872.786606 9410.042459 10852.797542 9594.406148 C 10832.692263 9778.886009 10792.597919 9995.312949 10708.457906 10147.613388 C 10624.317893 10299.913828 10496.015994 10388.087766 10423.846176 10548.404018 C 10351.676358 10708.72027 10335.754836 10941.178835 10263.468802 11081.513641 C 10191.4152 11221.848447 10063.113301 11269.943323 10131.331792 11253.911697 C 10199.434068 11237.763901 10463.940519 11157.721946 10632.336761 10945.244827 C 10800.733003 10732.767708 10872.786606 10388.087766 10896.959428 10139.597576 C 10920.899818 9891.107385 10896.959428 9738.690775 10880.805475 9822.914893 C 10864.767737 9907.022839 10856.748869 10227.771514 10760.63866 10380.071954 C 10664.412236 10532.372393 10479.978256 10516.340768 10335.754836 10464.1799 C 10191.4152 10412.135204 10087.169907 10323.961265 9918.773665 10271.800398 C 9750.493638 10219.755702 9518.062662 10203.724077 9333.628683 10079.537067 C 9149.194703 9955.233886 9012.990151 9722.775321 8888.639579 9682.696258 C 8764.405222 9642.501024 8652.257276 9794.917634 8551.96331 9826.864714 C 8451.785559 9859.044135 8363.578004 9770.754025 8339.521398 9622.519578 C 8315.464792 9474.168959 8355.675351 9265.757832 8427.728953 9129.489018 C 8499.898771 8993.220204 8604.144064 8929.093703 8660.276145 8949.075149 C 8716.408226 8969.172766 8724.310879 9073.37833 8668.295014 9165.502089 C 8612.162933 9257.742019 8491.879903 9337.900145 8475.842165 9462.203326 C 8459.804428 9586.390336 8548.011983 9754.7224 8632.151997 9790.851642 C 8716.408226 9826.864714 8796.480697 9730.674962 8872.718057 9830.930705 C 8948.839202 9931.186448 9021.00902 10227.771514 9201.375457 10456.164088 C 9381.741895 10684.672832 9670.304951 10844.989084 9898.784601 10913.181577 C 10127.26425 10981.257898 10295.544277 10957.326631 10303.563146 11017.38714 C 10311.582014 11077.447649 10159.339725 11221.848447 9858.690257 11253.911697 C 9558.04079 11285.858777 9109.216575 11205.816822 8768.472764 10848.938905 C 8427.728953 10492.29333 8195.297977 9859.044135 8066.996078 9442.105709 C 7938.69418 9025.283454 7914.753789 8824.888139 7834.565102 8704.650951 C 7754.376416 8584.29759 7618.055648 8544.218528 7577.961305 8431.997151 C 7537.983177 8319.775775 7593.999042 8135.412085 7662.217534 7959.064208 C 7730.31981 7782.716331 7810.508496 7614.384267 7798.422086 7694.542393 C 7786.45189 7774.700519 7682.206598 8103.348835 7672.909359 8313.154017 C 7663.495904 8522.843027 7749.030503 8613.805075 7809.113911 8553.628394 C 7869.313533 8493.451714 7904.061964 8282.36865 7953.453547 8044.566209 C 8002.845129 7806.763769 8066.996078 7542.241953 8075.014947 7297.701584 C 8083.033816 7053.161214 8034.920604 6828.718462 7978.788523 6664.452389 C 7922.656442 6500.070145 7858.621708 6395.864582 7802.489628 6223.466525 C 7746.357547 6051.18464 7698.244335 5810.594091 7702.311877 5790.612645 C 7706.263204 5770.515028 7762.395284 5971.026514 7986.807392 6091.263703 C 8211.335715 6211.500892 8604.144064 6251.579955 8784.510502 6528.067404 C 8964.876939 6804.671024 8932.801464 7317.68303 8876.669384 7760.643804 C 8820.537303 8203.604578 8740.348616 8576.397949 8700.370488 8762.736549 C 8660.276145 8949.075149 8660.276145 8949.075149 8688.284078 8838.944854 C 8716.408226 8728.698388 8772.424091 8508.205456 8876.669384 8293.753427 C 8980.914676 8079.301397 9133.156966 7870.89027 9277.496602 7722.539651 C 9421.836238 7574.305204 9558.04079 7486.131265 9666.353625 7462.083828 C 9774.550244 7438.03639 9854.738931 7478.115453 9914.822338 7562.223399 C 9975.021961 7646.447517 10015.000089 7774.700519 10158.758648 7915.035325 C 10302.284775 8055.253959 10549.475118 8207.554399 10573.531724 8175.491148 C 10597.58833 8143.427898 10398.511199 7927.000958 10339.00887 7562.223399 C 10279.622755 7197.445841 10359.695226 6684.433835 10303.563146 6271.561401 C 10247.54728 5858.688967 10055.094432 5546.072276 9850.671389 5389.705844 C 9646.248345 5233.455585 9429.855107 5233.455585 9393.71209 5281.55046 C 9357.685289 5329.645336 9502.024925 5425.835087 9594.183807 5674.325277 C 9686.342689 5922.815467 9726.437032 6323.722268 9750.493638 6644.354772 C 9774.550244 6964.987276 9782.569113 7205.461653 9698.429099 7265.638333 C 9614.172871 7325.815013 9437.873975 7205.461653 9225.432063 7165.38259 C 9012.990151 7125.303527 8764.405222 7165.38259 8584.038785 7009.132331 C 8403.672347 6852.765899 8291.524401 6500.070145 8291.524401 6576.162279 C 8291.524401 6652.370585 8403.672347 7157.366778 8431.796495 7694.426222 C 8459.920644 8231.485665 8403.904778 8800.608359 8290.362246 8974.284299 C 8176.819715 9148.076409 8005.634301 8926.305594 7877.332402 8770.055334 C 7749.030503 8613.805075 7663.495904 8522.843027 7596.671998 8491.476804 C 7529.848093 8460.110581 7481.851096 8488.107839 7417.700147 8610.43611 C 7353.549197 8732.648209 7273.360511 8949.075149 7203.282571 9089.409955 C 7133.088417 9229.744761 7073.005009 9293.871262 7036.861993 9283.880539 C 7000.835191 9273.773645 6988.748781 9189.549527 7028.843124 9043.28999 C 7068.937467 8897.030453 7161.212565 8688.619325 7223.271635 8516.221269 C 7285.330706 8343.823213 7317.406181 8207.554399 7295.441453 8245.658551 C 7273.360511 8283.762704 7197.239366 8496.239823 7102.988605 8710.575682 C 7008.85406 8925.027711 6896.589899 9141.570822 6812.449885 9249.726207 C 6728.193656 9357.997762 6672.177791 9357.997762 6666.134586 9299.795993 C 6660.09138 9241.710394 6704.253266 9125.423026 6770.379879 8941.059336 C 6836.506491 8756.695647 6924.597831 8504.139465 7000.835191 8335.8074 C 7076.956336 8167.475336 7141.107285 8083.367389 7133.088417 8137.503167 C 7125.069548 8191.522773 7044.880861 8383.902276 6940.635568 8574.306868 C 6836.506491 8764.711459 6708.204592 8953.141141 6616.04571 9047.355982 C 6523.886828 9141.570822 6467.754748 9141.570822 6455.668337 9097.425768 C 6443.698142 9053.280713 6475.773616 8965.106774 6543.875892 8804.790522 C 6611.978168 8644.474271 6716.223461 8412.015705 6798.387811 8239.617649 C 6880.552161 8067.335764 6940.635568 7955.114388 6937.032888 7965.105111 C 6933.313993 7975.095833 6865.90901 8107.414827 6781.652781 8231.601836 C 6697.512768 8355.905017 6596.637724 8472.076214 6532.138128 8488.107839 C 6467.754748 8504.139465 6439.6306 8420.031518 6523.886828 8227.652016 C 6608.026842 8035.272514 6804.431017 7734.621456 6912.627636 7459.992746 C 7020.824255 7185.480208 7040.929535 6936.990017 7155.169359 6764.591961 C 7269.409184 6592.310076 7477.783554 6496.004153 7580.053184 6461.965993 C 7682.206598 6427.927832 7678.255271 6455.92509 7572.034315 6512.035779 C 7465.813359 6568.262638 7257.322773 6652.370585 7129.020875 6592.310076 C 7000.835191 6532.133396 6952.721979 6327.672089 6830.463286 6227.532517 C 6708.204592 6127.276774 6511.800418 6131.342766 6421.617199 6193.378185 C 6331.43398 6255.529776 6347.471718 6375.766965 6457.644 6413.871117 C 6567.932498 6451.97527 6772.355542 6407.830215 6854.519892 6540.149208 C 6936.684242 6672.468202 6896.589899 6981.018901 6816.401212 7247.631798 C 6736.328741 7514.128524 6616.04571 7738.687448 6457.644 7708.599108 C 6299.358506 7678.510768 6102.954331 7393.891335 5922.587893 7001.116518 C 5742.221456 6608.341701 5577.892756 6107.295328 5477.715005 5736.476867 C 5377.421039 5365.774578 5341.394238 5125.184029 5249.235356 4896.791456 C 5157.076474 4668.282711 5008.669295 4451.855771 5056.20143 4195.349768 C 5103.617349 3938.727594 5346.74015 3642.142528 5406.823557 3688.262493 C 5467.02318 3734.382459 5344.067194 4123.207455 5366.729214 4461.846494 C 5389.50745 4800.601705 5557.787476 5089.170958 5603.925025 5081.155145 C 5650.062574 5073.139333 5573.825214 4768.422283 5613.919557 4632.153469 C 5654.013901 4495.884655 5810.323732 4527.947905 5850.418075 4690.355239 C 5890.512419 4852.646401 5814.391274 5145.281646 5890.512419 5445.932704 C 5966.749779 5746.46759 6195.113213 6055.134461 6229.164351 6035.036844 C 6263.331704 6015.055398 6102.954331 5666.309464 6185.118681 5261.569014 C 6267.283031 4856.712393 6591.989104 4395.745083 6734.469293 4041.19059 C 6876.949481 3686.636097 6837.32 3438.610591 6648.237401 3311.635473 C 6459.038586 3184.776526 6120.502869 3178.967966 6180.353846 3220.789597 C 6240.321038 3262.611228 6698.674922 3352.17922 7024.078289 3517.258491 C 7349.481655 3682.221591 7541.934504 3922.695969 7606.085453 4195.349768 C 7670.236402 4467.887396 7606.085453 4772.488275 7648.15546 5009.012832 C 7690.225466 5245.537389 7838.516429 5413.869453 7878.029695 5592.07607 C 7917.659176 5770.282686 7848.394746 5958.363854 7824.338139 5964.404756 C 7800.281533 5970.445658 7821.432752 5794.330124 7733.806274 5760.408134 C 7646.179796 5726.486145 7449.775622 5834.641529 7265.341642 5888.777307 C 7081.023878 5942.913085 6908.560094 5942.913085 6736.328741 5942.913085 " stroke="#231f20" stroke-width="50.248001" stroke-opacity="1" stroke-miterlimit="22.926001"/></g></svg>